<svg xmlns="http://www.w3.org/2000/svg" xmlns:xlink="http://www.w3.org/1999/xlink" width="500" zoomAndPan="magnify" viewBox="0 0 375 374.999991" height="500" preserveAspectRatio="xMidYMid meet" version="1.0"><defs><clipPath id="id1"><path d="M 182 8 L 317.992188 8 L 317.992188 144 L 182 144 Z M 182 8 " clip-rule="nonzero"/></clipPath><clipPath id="id2"><path d="M 56.882812 8 L 281 8 L 281 269.089844 L 56.882812 269.089844 Z M 56.882812 8 " clip-rule="nonzero"/></clipPath><clipPath id="id3"><path d="M 282 90 L 317.992188 90 L 317.992188 126 L 282 126 Z M 282 90 " clip-rule="nonzero"/></clipPath><clipPath id="id4"><path d="M 261 234 L 296 234 L 296 269.089844 L 261 269.089844 Z M 261 234 " clip-rule="nonzero"/></clipPath></defs><path fill="rgb(89.408875%, 32.548523%, 32.548523%)" d="M 282.359375 44.789062 C 229.96875 -7.601562 145.027344 -7.601562 92.632812 44.789062 C 40.242188 97.183594 40.242188 182.121094 92.632812 234.515625 L 187.496094 329.378906 L 282.359375 234.515625 C 334.769531 182.140625 334.753906 97.183594 282.359375 44.789062 Z M 282.359375 44.789062 " fill-opacity="1" fill-rule="nonzero"/><path fill="rgb(89.408875%, 32.548523%, 32.548523%)" d="M 128.003906 265.082031 L 187.371094 375.019531 L 246.738281 265.082031 L 128.003906 265.082031 " fill-opacity="1" fill-rule="nonzero"/><path fill="rgb(22.349548%, 92.939758%, 78.039551%)" d="M 187.5 0 C 111.601562 0 50.074219 61.527344 50.074219 137.425781 C 50.074219 213.324219 111.601562 274.851562 187.5 274.851562 C 263.398438 274.851562 324.925781 213.324219 324.925781 137.425781 C 324.925781 61.527344 263.398438 0 187.5 0 " fill-opacity="1" fill-rule="nonzero"/><g clip-path="url(#id1)"><path fill="rgb(89.408875%, 32.548523%, 32.548523%)" d="M 187.222656 143.097656 C 186.109375 143.097656 184.996094 142.671875 184.148438 141.824219 C 182.453125 140.125 182.453125 137.378906 184.148438 135.679688 L 310.144531 9.6875 C 311.835938 7.988281 314.589844 7.988281 316.285156 9.6875 C 317.984375 11.386719 317.984375 14.132812 316.285156 15.832031 L 190.292969 141.824219 C 189.445312 142.671875 188.332031 143.097656 187.222656 143.097656 Z M 187.222656 143.097656 " fill-opacity="1" fill-rule="nonzero"/></g><g clip-path="url(#id2)"><path fill="rgb(89.408875%, 32.548523%, 32.548523%)" d="M 187.222656 269.089844 C 115.355469 269.089844 56.882812 210.621094 56.882812 138.753906 C 56.882812 66.882812 115.355469 8.414062 187.222656 8.414062 C 222.035156 8.414062 254.765625 21.972656 279.382812 46.589844 C 280.199219 47.40625 280.65625 48.507812 280.65625 49.664062 C 280.65625 50.816406 280.199219 51.921875 279.382812 52.734375 L 190.292969 141.824219 C 188.597656 143.523438 185.847656 143.523438 184.148438 141.824219 C 182.453125 140.125 182.453125 137.378906 184.148438 135.679688 L 270.117188 49.71875 C 247.527344 28.652344 218.261719 17.105469 187.222656 17.105469 C 120.144531 17.105469 65.574219 71.675781 65.574219 138.753906 C 65.574219 205.828125 120.144531 260.398438 187.222656 260.398438 C 202.574219 260.398438 217.542969 257.582031 231.703125 252.011719 C 233.933594 251.136719 236.453125 252.234375 237.335938 254.460938 C 238.214844 256.699219 237.113281 259.21875 234.882812 260.097656 C 219.703125 266.066406 203.671875 269.089844 187.222656 269.089844 Z M 187.222656 269.089844 " fill-opacity="1" fill-rule="nonzero"/></g><path fill="rgb(89.408875%, 32.548523%, 32.548523%)" d="M 187.222656 243.023438 C 129.726562 243.023438 82.953125 196.242188 82.953125 138.753906 C 82.953125 81.261719 129.726562 34.480469 187.222656 34.480469 C 215.03125 34.480469 241.203125 45.339844 260.917969 65.054688 C 262.617188 66.753906 262.617188 69.5 260.917969 71.199219 L 190.292969 141.824219 C 188.597656 143.523438 185.84375 143.523438 184.148438 141.824219 C 182.453125 140.125 182.453125 137.378906 184.148438 135.679688 L 251.632812 68.195312 C 233.96875 52.027344 211.261719 43.171875 187.222656 43.171875 C 134.515625 43.171875 91.640625 86.046875 91.640625 138.753906 C 91.640625 191.457031 134.515625 234.332031 187.222656 234.332031 C 192.808594 234.332031 198.40625 233.847656 203.847656 232.886719 C 206.203125 232.441406 208.464844 234.046875 208.882812 236.410156 C 209.300781 238.773438 207.722656 241.023438 205.359375 241.441406 C 199.417969 242.492188 193.316406 243.023438 187.222656 243.023438 Z M 187.222656 243.023438 " fill-opacity="1" fill-rule="nonzero"/><path fill="rgb(89.408875%, 32.548523%, 32.548523%)" d="M 159.777344 182.203125 C 158.914062 182.203125 158.039062 181.945312 157.28125 181.40625 C 143.386719 171.628906 135.085938 155.683594 135.085938 138.753906 C 135.085938 110.003906 158.472656 86.617188 187.222656 86.617188 C 201.128906 86.617188 214.214844 92.046875 224.074219 101.90625 C 225.765625 103.605469 225.765625 106.351562 224.074219 108.050781 L 190.296875 141.824219 C 188.601562 143.523438 185.847656 143.523438 184.15625 141.824219 C 182.457031 140.125 182.457031 137.378906 184.15625 135.679688 L 214.710938 105.125 C 206.960938 98.765625 197.347656 95.304688 187.222656 95.304688 C 163.265625 95.304688 143.777344 114.796875 143.777344 138.753906 C 143.777344 152.859375 150.691406 166.152344 162.28125 174.308594 C 164.242188 175.683594 164.710938 178.398438 163.332031 180.359375 C 162.488281 181.5625 161.140625 182.203125 159.777344 182.203125 Z M 159.777344 182.203125 " fill-opacity="1" fill-rule="nonzero"/><path fill="rgb(89.408875%, 32.548523%, 32.548523%)" d="M 169.847656 214.890625 C 169.507812 214.890625 169.164062 214.851562 168.824219 214.769531 C 133.609375 206.246094 109.019531 174.984375 109.019531 138.753906 C 109.019531 130.753906 110.238281 122.839844 112.652344 115.21875 C 113.375 112.933594 115.8125 111.65625 118.105469 112.390625 C 120.394531 113.109375 121.660156 115.554688 120.9375 117.839844 C 118.792969 124.609375 117.707031 131.644531 117.707031 138.753906 C 117.707031 170.964844 139.566406 198.75 170.867188 206.328125 C 173.203125 206.894531 174.632812 209.238281 174.070312 211.570312 C 173.589844 213.5625 171.808594 214.890625 169.847656 214.890625 Z M 169.847656 214.890625 " fill-opacity="1" fill-rule="nonzero"/><path fill="rgb(89.408875%, 32.548523%, 32.548523%)" d="M 126.125 101.648438 C 125.28125 101.648438 124.433594 101.40625 123.683594 100.898438 C 121.695312 99.542969 121.183594 96.839844 122.535156 94.859375 C 137.160156 73.375 161.339844 60.550781 187.222656 60.550781 C 208.078125 60.550781 227.707031 68.691406 242.492188 83.476562 C 244.191406 85.175781 244.191406 87.921875 242.492188 89.621094 C 240.800781 91.316406 238.042969 91.316406 236.351562 89.621094 C 223.207031 76.476562 205.761719 69.238281 187.222656 69.238281 C 164.21875 69.238281 142.722656 80.644531 129.722656 99.746094 C 128.882812 100.984375 127.515625 101.648438 126.125 101.648438 Z M 126.125 101.648438 " fill-opacity="1" fill-rule="nonzero"/><path fill="rgb(89.408875%, 32.548523%, 32.548523%)" d="M 252.390625 186.542969 C 242.804688 186.542969 235.011719 178.75 235.011719 169.164062 C 235.011719 159.582031 242.804688 151.785156 252.390625 151.785156 C 261.972656 151.785156 269.769531 159.582031 269.769531 169.164062 C 269.769531 178.75 261.972656 186.542969 252.390625 186.542969 Z M 252.390625 160.476562 C 247.597656 160.476562 243.699219 164.371094 243.699219 169.164062 C 243.699219 173.957031 247.597656 177.851562 252.390625 177.851562 C 257.183594 177.851562 261.078125 173.957031 261.078125 169.164062 C 261.078125 164.371094 257.183594 160.476562 252.390625 160.476562 Z M 252.390625 160.476562 " fill-opacity="1" fill-rule="nonzero"/><g clip-path="url(#id3)"><path fill="rgb(89.408875%, 32.548523%, 32.548523%)" d="M 300.179688 125.71875 C 290.597656 125.71875 282.800781 117.925781 282.800781 108.339844 C 282.800781 98.757812 290.597656 90.960938 300.179688 90.960938 C 309.765625 90.960938 317.558594 98.757812 317.558594 108.339844 C 317.558594 117.925781 309.765625 125.71875 300.179688 125.71875 Z M 300.179688 99.652344 C 295.386719 99.652344 291.492188 103.546875 291.492188 108.339844 C 291.492188 113.132812 295.386719 117.03125 300.179688 117.03125 C 304.972656 117.03125 308.871094 113.132812 308.871094 108.339844 C 308.871094 103.546875 304.972656 99.652344 300.179688 99.652344 Z M 300.179688 99.652344 " fill-opacity="1" fill-rule="nonzero"/></g><g clip-path="url(#id4)"><path fill="rgb(89.408875%, 32.548523%, 32.548523%)" d="M 278.457031 269.089844 C 268.875 269.089844 261.078125 261.296875 261.078125 251.710938 C 261.078125 242.128906 268.875 234.332031 278.457031 234.332031 C 288.042969 234.332031 295.835938 242.128906 295.835938 251.710938 C 295.835938 261.296875 288.042969 269.089844 278.457031 269.089844 Z M 278.457031 243.023438 C 273.664062 243.023438 269.769531 246.917969 269.769531 251.710938 C 269.769531 256.503906 273.664062 260.398438 278.457031 260.398438 C 283.25 260.398438 287.148438 256.503906 287.148438 251.710938 C 287.148438 246.917969 283.25 243.023438 278.457031 243.023438 Z M 278.457031 243.023438 " fill-opacity="1" fill-rule="nonzero"/></g><path fill="rgb(89.408875%, 32.548523%, 32.548523%)" d="M 187.222656 164.820312 C 172.851562 164.820312 161.152344 153.128906 161.152344 138.753906 C 161.152344 124.375 172.851562 112.683594 187.222656 112.683594 C 201.59375 112.683594 213.289062 124.375 213.289062 138.753906 C 213.289062 141.15625 211.34375 143.097656 208.945312 143.097656 C 206.546875 143.097656 204.601562 141.15625 204.601562 138.753906 C 204.601562 129.167969 196.804688 121.375 187.222656 121.375 C 177.636719 121.375 169.84375 129.167969 169.84375 138.753906 C 169.84375 148.335938 177.636719 156.128906 187.222656 156.128906 C 189.621094 156.128906 191.566406 158.074219 191.566406 160.476562 C 191.566406 162.878906 189.621094 164.820312 187.222656 164.820312 Z M 187.222656 164.820312 " fill-opacity="1" fill-rule="nonzero"/><path fill="rgb(89.408875%, 32.548523%, 32.548523%)" d="M 119.878906 121.375 C 111.496094 121.375 104.675781 114.554688 104.675781 106.167969 C 104.675781 97.78125 111.496094 90.960938 119.878906 90.960938 C 128.265625 90.960938 135.085938 97.78125 135.085938 106.167969 C 135.085938 114.554688 128.265625 121.375 119.878906 121.375 Z M 119.878906 99.652344 C 116.289062 99.652344 113.363281 102.574219 113.363281 106.167969 C 113.363281 109.761719 116.289062 112.683594 119.878906 112.683594 C 123.472656 112.683594 126.398438 109.761719 126.398438 106.167969 C 126.398438 102.574219 123.472656 99.652344 119.878906 99.652344 Z M 119.878906 99.652344 " fill-opacity="1" fill-rule="nonzero"/></svg>