<svg xmlns="http://www.w3.org/2000/svg" xmlns:xlink="http://www.w3.org/1999/xlink" width="500" zoomAndPan="magnify" viewBox="0 0 375 374.999991" height="500" preserveAspectRatio="xMidYMid meet" version="1.0"><defs><clipPath id="id1"><path d="M 181 9.292969 L 365 9.292969 L 365 194 L 181 194 Z M 181 9.292969 " clip-rule="nonzero"/></clipPath><clipPath id="id2"><path d="M 9.292969 9.292969 L 315 9.292969 L 315 365.542969 L 9.292969 365.542969 Z M 9.292969 9.292969 " clip-rule="nonzero"/></clipPath><clipPath id="id3"><path d="M 287 318 L 336 318 L 336 365.542969 L 287 365.542969 Z M 287 318 " clip-rule="nonzero"/></clipPath></defs><path fill="rgb(89.408875%, 32.548523%, 32.548523%)" d="M 187.5 -1.597656 C 83.945312 -1.597656 0 82.351562 0 185.902344 C 0 289.457031 83.945312 373.402344 187.5 373.402344 C 291.054688 373.402344 375 289.457031 375 185.902344 C 375 82.351562 291.054688 -1.597656 187.5 -1.597656 " fill-opacity="1" fill-rule="nonzero"/><g clip-path="url(#id1)"><path fill="rgb(22.349548%, 92.939758%, 78.039551%)" d="M 187.121094 193.640625 C 185.601562 193.640625 184.085938 193.058594 182.929688 191.902344 C 180.613281 189.585938 180.613281 185.839844 182.929688 183.523438 L 354.832031 11.621094 C 357.140625 9.304688 360.898438 9.304688 363.210938 11.621094 C 365.53125 13.9375 365.53125 17.683594 363.210938 20.003906 L 191.3125 191.902344 C 190.15625 193.058594 188.636719 193.640625 187.121094 193.640625 Z M 187.121094 193.640625 " fill-opacity="1" fill-rule="nonzero"/></g><g clip-path="url(#id2)"><path fill="rgb(22.349548%, 92.939758%, 78.039551%)" d="M 187.121094 365.542969 C 89.066406 365.542969 9.292969 285.769531 9.292969 187.714844 C 9.292969 89.660156 89.066406 9.882812 187.121094 9.882812 C 234.617188 9.882812 279.277344 28.382812 312.863281 61.96875 C 313.976562 63.085938 314.597656 64.585938 314.597656 66.160156 C 314.597656 67.738281 313.976562 69.242188 312.863281 70.351562 L 191.3125 191.902344 C 189 194.222656 185.246094 194.222656 182.929688 191.902344 C 180.613281 189.585938 180.613281 185.839844 182.929688 183.523438 L 300.21875 66.238281 C 269.402344 37.496094 229.472656 21.738281 187.121094 21.738281 C 95.605469 21.738281 21.148438 96.195312 21.148438 187.714844 C 21.148438 279.230469 95.605469 353.6875 187.121094 353.6875 C 208.070312 353.6875 228.488281 349.839844 247.808594 342.238281 C 250.855469 341.046875 254.292969 342.542969 255.496094 345.582031 C 256.691406 348.636719 255.191406 352.074219 252.144531 353.269531 C 231.433594 361.414062 209.5625 365.542969 187.121094 365.542969 Z M 187.121094 365.542969 " fill-opacity="1" fill-rule="nonzero"/></g><path fill="rgb(22.349548%, 92.939758%, 78.039551%)" d="M 187.121094 329.976562 C 108.675781 329.976562 44.855469 266.152344 44.855469 187.714844 C 44.855469 109.273438 108.675781 45.449219 187.121094 45.449219 C 225.0625 45.449219 260.769531 60.261719 287.671875 87.164062 C 289.988281 89.480469 289.988281 93.226562 287.671875 95.542969 L 191.3125 191.902344 C 189 194.222656 185.242188 194.222656 182.929688 191.902344 C 180.613281 189.585938 180.613281 185.839844 182.929688 183.523438 L 275.003906 91.449219 C 250.902344 69.386719 219.917969 57.304688 187.121094 57.304688 C 115.210938 57.304688 56.710938 115.804688 56.710938 187.714844 C 56.710938 259.621094 115.210938 318.121094 187.121094 318.121094 C 194.742188 318.121094 202.378906 317.457031 209.804688 316.148438 C 213.019531 315.542969 216.105469 317.730469 216.675781 320.953125 C 217.246094 324.179688 215.09375 327.25 211.867188 327.816406 C 203.757812 329.253906 195.4375 329.976562 187.121094 329.976562 Z M 187.121094 329.976562 " fill-opacity="1" fill-rule="nonzero"/><path fill="rgb(22.349548%, 92.939758%, 78.039551%)" d="M 149.675781 246.996094 C 148.496094 246.996094 147.304688 246.644531 146.273438 245.910156 C 127.308594 232.566406 115.988281 210.8125 115.988281 187.714844 C 115.988281 148.488281 147.898438 116.582031 187.121094 116.582031 C 206.09375 116.582031 223.949219 123.992188 237.398438 137.441406 C 239.710938 139.757812 239.710938 143.503906 237.398438 145.824219 L 191.316406 191.902344 C 189.003906 194.222656 185.246094 194.222656 182.933594 191.902344 C 180.617188 189.585938 180.617188 185.839844 182.933594 183.523438 L 224.625 141.832031 C 214.050781 133.15625 200.9375 128.4375 187.121094 128.4375 C 154.433594 128.4375 127.84375 155.027344 127.84375 187.714844 C 127.84375 206.960938 137.28125 225.097656 153.089844 236.222656 C 155.769531 238.105469 156.410156 241.800781 154.523438 244.480469 C 153.375 246.125 151.535156 246.996094 149.675781 246.996094 Z M 149.675781 246.996094 " fill-opacity="1" fill-rule="nonzero"/><path fill="rgb(22.349548%, 92.939758%, 78.039551%)" d="M 163.414062 291.59375 C 162.953125 291.59375 162.484375 291.542969 162.015625 291.429688 C 113.972656 279.796875 80.421875 237.148438 80.421875 187.714844 C 80.421875 176.800781 82.089844 166 85.378906 155.601562 C 86.367188 152.484375 89.695312 150.742188 92.816406 151.742188 C 95.941406 152.726562 97.671875 156.066406 96.683594 159.183594 C 93.761719 168.417969 92.277344 178.015625 92.277344 187.714844 C 92.277344 231.660156 122.101562 269.574219 164.808594 279.910156 C 167.992188 280.683594 169.941406 283.882812 169.175781 287.066406 C 168.519531 289.78125 166.089844 291.59375 163.414062 291.59375 Z M 163.414062 291.59375 " fill-opacity="1" fill-rule="nonzero"/><path fill="rgb(22.349548%, 92.939758%, 78.039551%)" d="M 103.761719 137.089844 C 102.609375 137.089844 101.453125 136.757812 100.429688 136.066406 C 97.71875 134.214844 97.019531 130.527344 98.863281 127.828125 C 118.816406 98.515625 151.808594 81.015625 187.121094 81.015625 C 215.578125 81.015625 242.359375 92.125 262.53125 112.296875 C 264.847656 114.613281 264.847656 118.359375 262.53125 120.675781 C 260.21875 122.996094 256.460938 122.996094 254.148438 120.675781 C 236.21875 102.746094 212.414062 92.871094 187.121094 92.871094 C 155.734375 92.871094 126.410156 108.429688 108.667969 134.496094 C 107.523438 136.183594 105.65625 137.089844 103.761719 137.089844 Z M 103.761719 137.089844 " fill-opacity="1" fill-rule="nonzero"/><path fill="rgb(22.349548%, 92.939758%, 78.039551%)" d="M 276.035156 252.917969 C 262.957031 252.917969 252.324219 242.28125 252.324219 229.207031 C 252.324219 216.128906 262.957031 205.496094 276.035156 205.496094 C 289.109375 205.496094 299.746094 216.128906 299.746094 229.207031 C 299.746094 242.28125 289.109375 252.917969 276.035156 252.917969 Z M 276.035156 217.351562 C 269.496094 217.351562 264.179688 222.667969 264.179688 229.207031 C 264.179688 235.746094 269.496094 241.0625 276.035156 241.0625 C 282.574219 241.0625 287.890625 235.746094 287.890625 229.207031 C 287.890625 222.667969 282.574219 217.351562 276.035156 217.351562 Z M 276.035156 217.351562 " fill-opacity="1" fill-rule="nonzero"/><path fill="rgb(22.349548%, 92.939758%, 78.039551%)" d="M 341.238281 169.929688 C 328.160156 169.929688 317.527344 159.296875 317.527344 146.21875 C 317.527344 133.144531 328.160156 122.507812 341.238281 122.507812 C 354.316406 122.507812 364.949219 133.144531 364.949219 146.21875 C 364.949219 159.296875 354.316406 169.929688 341.238281 169.929688 Z M 341.238281 134.363281 C 334.699219 134.363281 329.382812 139.679688 329.382812 146.21875 C 329.382812 152.757812 334.699219 158.074219 341.238281 158.074219 C 347.777344 158.074219 353.09375 152.757812 353.09375 146.21875 C 353.09375 139.679688 347.777344 134.363281 341.238281 134.363281 Z M 341.238281 134.363281 " fill-opacity="1" fill-rule="nonzero"/><g clip-path="url(#id3)"><path fill="rgb(22.349548%, 92.939758%, 78.039551%)" d="M 311.601562 365.542969 C 298.523438 365.542969 287.890625 354.90625 287.890625 341.832031 C 287.890625 328.753906 298.523438 318.121094 311.601562 318.121094 C 324.675781 318.121094 335.3125 328.753906 335.3125 341.832031 C 335.3125 354.90625 324.675781 365.542969 311.601562 365.542969 Z M 311.601562 329.976562 C 305.0625 329.976562 299.746094 335.292969 299.746094 341.832031 C 299.746094 348.371094 305.0625 353.6875 311.601562 353.6875 C 318.136719 353.6875 323.457031 348.371094 323.457031 341.832031 C 323.457031 335.292969 318.136719 329.976562 311.601562 329.976562 Z M 311.601562 329.976562 " fill-opacity="1" fill-rule="nonzero"/></g><path fill="rgb(22.349548%, 92.939758%, 78.039551%)" d="M 187.121094 223.277344 C 167.511719 223.277344 151.554688 207.328125 151.554688 187.714844 C 151.554688 168.097656 167.511719 152.148438 187.121094 152.148438 C 206.730469 152.148438 222.6875 168.097656 222.6875 187.714844 C 222.6875 190.992188 220.03125 193.640625 216.757812 193.640625 C 213.484375 193.640625 210.832031 190.992188 210.832031 187.714844 C 210.832031 174.636719 200.195312 164.003906 187.121094 164.003906 C 174.042969 164.003906 163.410156 174.636719 163.410156 187.714844 C 163.410156 200.789062 174.042969 211.421875 187.121094 211.421875 C 190.390625 211.421875 193.046875 214.074219 193.046875 217.351562 C 193.046875 220.628906 190.390625 223.277344 187.121094 223.277344 Z M 187.121094 223.277344 " fill-opacity="1" fill-rule="nonzero"/><path fill="rgb(22.349548%, 92.939758%, 78.039551%)" d="M 95.242188 164.003906 C 83.800781 164.003906 74.496094 154.695312 74.496094 143.253906 C 74.496094 131.816406 83.800781 122.507812 95.242188 122.507812 C 106.683594 122.507812 115.988281 131.816406 115.988281 143.253906 C 115.988281 154.695312 106.683594 164.003906 95.242188 164.003906 Z M 95.242188 134.363281 C 90.339844 134.363281 86.351562 138.355469 86.351562 143.253906 C 86.351562 148.15625 90.339844 152.148438 95.242188 152.148438 C 100.144531 152.148438 104.132812 148.15625 104.132812 143.253906 C 104.132812 138.355469 100.144531 134.363281 95.242188 134.363281 Z M 95.242188 134.363281 " fill-opacity="1" fill-rule="nonzero"/></svg>