<svg xmlns="http://www.w3.org/2000/svg" xmlns:xlink="http://www.w3.org/1999/xlink" width="500" zoomAndPan="magnify" viewBox="0 0 375 374.999991" height="500" preserveAspectRatio="xMidYMid meet" version="1.0"><defs><g/><clipPath id="id1"><path d="M 111 69 L 198.410156 69 L 198.410156 157 L 111 157 Z M 111 69 " clip-rule="nonzero"/></clipPath><clipPath id="id2"><path d="M 30.15625 69 L 175 69 L 175 237.222656 L 30.15625 237.222656 Z M 30.15625 69 " clip-rule="nonzero"/></clipPath><clipPath id="id3"><path d="M 175 122 L 198.410156 122 L 198.410156 145 L 175 145 Z M 175 122 " clip-rule="nonzero"/></clipPath><clipPath id="id4"><path d="M 161 214 L 185 214 L 185 237.222656 L 161 237.222656 Z M 161 214 " clip-rule="nonzero"/></clipPath></defs><path fill="rgb(22.349548%, 92.939758%, 78.039551%)" d="M 114.324219 63.824219 C 65.414062 63.824219 25.765625 103.472656 25.765625 152.378906 C 25.765625 201.289062 65.414062 240.9375 114.324219 240.9375 C 163.230469 240.9375 202.878906 201.289062 202.878906 152.378906 C 202.878906 103.472656 163.230469 63.824219 114.324219 63.824219 " fill-opacity="1" fill-rule="nonzero"/><g clip-path="url(#id1)"><path fill="rgb(89.408875%, 32.548523%, 32.548523%)" d="M 114.144531 156.035156 C 113.425781 156.035156 112.710938 155.761719 112.164062 155.214844 C 111.070312 154.121094 111.070312 152.351562 112.164062 151.253906 L 193.351562 70.066406 C 194.445312 68.972656 196.21875 68.972656 197.3125 70.066406 C 198.40625 71.160156 198.40625 72.929688 197.3125 74.027344 L 116.121094 155.214844 C 115.578125 155.761719 114.859375 156.035156 114.144531 156.035156 Z M 114.144531 156.035156 " fill-opacity="1" fill-rule="nonzero"/></g><g clip-path="url(#id2)"><path fill="rgb(89.408875%, 32.548523%, 32.548523%)" d="M 114.144531 237.222656 C 67.832031 237.222656 30.15625 199.546875 30.15625 153.234375 C 30.15625 106.921875 67.832031 69.246094 114.144531 69.246094 C 136.578125 69.246094 157.667969 77.984375 173.53125 93.847656 C 174.058594 94.375 174.351562 95.082031 174.351562 95.828125 C 174.351562 96.570312 174.058594 97.28125 173.53125 97.804688 L 116.121094 155.214844 C 115.03125 156.308594 113.257812 156.308594 112.164062 155.214844 C 111.070312 154.121094 111.070312 152.351562 112.164062 151.253906 L 167.558594 95.863281 C 153.003906 82.289062 134.148438 74.847656 114.144531 74.847656 C 70.921875 74.847656 35.753906 110.011719 35.753906 153.234375 C 35.753906 196.457031 70.921875 231.625 114.144531 231.625 C 124.039062 231.625 133.683594 229.808594 142.804688 226.21875 C 144.246094 225.65625 145.867188 226.359375 146.4375 227.796875 C 147.003906 229.238281 146.292969 230.863281 144.855469 231.425781 C 135.074219 235.273438 124.742188 237.222656 114.144531 237.222656 Z M 114.144531 237.222656 " fill-opacity="1" fill-rule="nonzero"/></g><path fill="rgb(89.408875%, 32.548523%, 32.548523%)" d="M 114.144531 220.425781 C 77.09375 220.425781 46.953125 190.28125 46.953125 153.234375 C 46.953125 116.1875 77.09375 86.042969 114.144531 86.042969 C 132.0625 86.042969 148.929688 93.039062 161.632812 105.746094 C 162.726562 106.839844 162.726562 108.609375 161.632812 109.703125 L 116.121094 155.214844 C 115.03125 156.308594 113.257812 156.308594 112.164062 155.214844 C 111.070312 154.121094 111.070312 152.351562 112.164062 151.253906 L 155.648438 107.769531 C 144.265625 97.347656 129.632812 91.644531 114.144531 91.644531 C 80.179688 91.644531 52.550781 119.273438 52.550781 153.234375 C 52.550781 187.195312 80.179688 214.824219 114.144531 214.824219 C 117.742188 214.824219 121.347656 214.511719 124.859375 213.894531 C 126.375 213.609375 127.832031 214.640625 128.101562 216.164062 C 128.371094 217.6875 127.355469 219.136719 125.832031 219.40625 C 122 220.082031 118.070312 220.425781 114.144531 220.425781 Z M 114.144531 220.425781 " fill-opacity="1" fill-rule="nonzero"/><path fill="rgb(89.408875%, 32.548523%, 32.548523%)" d="M 96.457031 181.234375 C 95.902344 181.234375 95.339844 181.070312 94.851562 180.722656 C 85.894531 174.417969 80.546875 164.144531 80.546875 153.234375 C 80.546875 134.710938 95.617188 119.640625 114.144531 119.640625 C 123.105469 119.640625 131.539062 123.140625 137.890625 129.492188 C 138.980469 130.585938 138.980469 132.355469 137.890625 133.449219 L 116.125 155.214844 C 115.035156 156.308594 113.257812 156.308594 112.167969 155.214844 C 111.070312 154.121094 111.070312 152.351562 112.167969 151.253906 L 131.855469 131.566406 C 126.863281 127.46875 120.667969 125.238281 114.144531 125.238281 C 98.707031 125.238281 86.148438 137.796875 86.148438 153.234375 C 86.148438 162.324219 90.605469 170.890625 98.070312 176.148438 C 99.335938 177.035156 99.636719 178.78125 98.75 180.046875 C 98.207031 180.820312 97.335938 181.234375 96.457031 181.234375 Z M 96.457031 181.234375 " fill-opacity="1" fill-rule="nonzero"/><path fill="rgb(89.408875%, 32.548523%, 32.548523%)" d="M 102.949219 202.296875 C 102.730469 202.296875 102.507812 202.273438 102.285156 202.21875 C 79.597656 196.726562 63.75 176.582031 63.75 153.234375 C 63.75 148.082031 64.539062 142.980469 66.089844 138.070312 C 66.558594 136.597656 68.128906 135.773438 69.605469 136.246094 C 71.078125 136.710938 71.898438 138.289062 71.429688 139.761719 C 70.050781 144.121094 69.351562 148.65625 69.351562 153.234375 C 69.351562 173.992188 83.433594 191.898438 103.605469 196.78125 C 105.109375 197.144531 106.03125 198.65625 105.667969 200.160156 C 105.359375 201.441406 104.210938 202.296875 102.949219 202.296875 Z M 102.949219 202.296875 " fill-opacity="1" fill-rule="nonzero"/><path fill="rgb(89.408875%, 32.548523%, 32.548523%)" d="M 74.773438 129.328125 C 74.230469 129.328125 73.683594 129.167969 73.199219 128.84375 C 71.917969 127.96875 71.589844 126.226562 72.460938 124.949219 C 81.882812 111.105469 97.464844 102.84375 114.144531 102.84375 C 127.585938 102.84375 140.234375 108.089844 149.761719 117.617188 C 150.855469 118.710938 150.855469 120.480469 149.761719 121.574219 C 148.667969 122.667969 146.894531 122.667969 145.800781 121.574219 C 137.332031 113.105469 126.089844 108.441406 114.144531 108.441406 C 99.320312 108.441406 85.46875 115.789062 77.089844 128.101562 C 76.550781 128.898438 75.667969 129.328125 74.773438 129.328125 Z M 74.773438 129.328125 " fill-opacity="1" fill-rule="nonzero"/><path fill="rgb(89.408875%, 32.548523%, 32.548523%)" d="M 156.136719 184.03125 C 149.960938 184.03125 144.9375 179.007812 144.9375 172.832031 C 144.9375 166.65625 149.960938 161.632812 156.136719 161.632812 C 162.3125 161.632812 167.335938 166.65625 167.335938 172.832031 C 167.335938 179.007812 162.3125 184.03125 156.136719 184.03125 Z M 156.136719 167.234375 C 153.050781 167.234375 150.539062 169.742188 150.539062 172.832031 C 150.539062 175.921875 153.050781 178.429688 156.136719 178.429688 C 159.226562 178.429688 161.738281 175.921875 161.738281 172.832031 C 161.738281 169.742188 159.226562 167.234375 156.136719 167.234375 Z M 156.136719 167.234375 " fill-opacity="1" fill-rule="nonzero"/><g clip-path="url(#id3)"><path fill="rgb(89.408875%, 32.548523%, 32.548523%)" d="M 186.933594 144.835938 C 180.757812 144.835938 175.734375 139.8125 175.734375 133.636719 C 175.734375 127.460938 180.757812 122.4375 186.933594 122.4375 C 193.109375 122.4375 198.132812 127.460938 198.132812 133.636719 C 198.132812 139.8125 193.109375 144.835938 186.933594 144.835938 Z M 186.933594 128.039062 C 183.84375 128.039062 181.332031 130.550781 181.332031 133.636719 C 181.332031 136.726562 183.84375 139.238281 186.933594 139.238281 C 190.019531 139.238281 192.53125 136.726562 192.53125 133.636719 C 192.53125 130.550781 190.019531 128.039062 186.933594 128.039062 Z M 186.933594 128.039062 " fill-opacity="1" fill-rule="nonzero"/></g><g clip-path="url(#id4)"><path fill="rgb(89.408875%, 32.548523%, 32.548523%)" d="M 172.933594 237.222656 C 166.757812 237.222656 161.738281 232.199219 161.738281 226.023438 C 161.738281 219.847656 166.757812 214.824219 172.933594 214.824219 C 179.109375 214.824219 184.132812 219.847656 184.132812 226.023438 C 184.132812 232.199219 179.109375 237.222656 172.933594 237.222656 Z M 172.933594 220.425781 C 169.847656 220.425781 167.335938 222.9375 167.335938 226.023438 C 167.335938 229.113281 169.847656 231.625 172.933594 231.625 C 176.023438 231.625 178.535156 229.113281 178.535156 226.023438 C 178.535156 222.9375 176.023438 220.425781 172.933594 220.425781 Z M 172.933594 220.425781 " fill-opacity="1" fill-rule="nonzero"/></g><path fill="rgb(89.408875%, 32.548523%, 32.548523%)" d="M 114.144531 170.03125 C 104.882812 170.03125 97.347656 162.5 97.347656 153.234375 C 97.347656 143.972656 104.882812 136.4375 114.144531 136.4375 C 123.40625 136.4375 130.941406 143.972656 130.941406 153.234375 C 130.941406 154.78125 129.6875 156.035156 128.140625 156.035156 C 126.597656 156.035156 125.34375 154.78125 125.34375 153.234375 C 125.34375 147.058594 120.320312 142.035156 114.144531 142.035156 C 107.96875 142.035156 102.945312 147.058594 102.945312 153.234375 C 102.945312 159.410156 107.96875 164.433594 114.144531 164.433594 C 115.6875 164.433594 116.941406 165.683594 116.941406 167.234375 C 116.941406 168.78125 115.6875 170.03125 114.144531 170.03125 Z M 114.144531 170.03125 " fill-opacity="1" fill-rule="nonzero"/><path fill="rgb(89.408875%, 32.548523%, 32.548523%)" d="M 70.75 142.035156 C 65.347656 142.035156 60.949219 137.640625 60.949219 132.238281 C 60.949219 126.835938 65.347656 122.4375 70.75 122.4375 C 76.152344 122.4375 80.546875 126.835938 80.546875 132.238281 C 80.546875 137.640625 76.152344 142.035156 70.75 142.035156 Z M 70.75 128.039062 C 68.433594 128.039062 66.550781 129.921875 66.550781 132.238281 C 66.550781 134.554688 68.433594 136.4375 70.75 136.4375 C 73.066406 136.4375 74.949219 134.554688 74.949219 132.238281 C 74.949219 129.921875 73.066406 128.039062 70.75 128.039062 Z M 70.75 128.039062 " fill-opacity="1" fill-rule="nonzero"/><g fill="rgb(0%, 0%, 0%)" fill-opacity="1"><g transform="translate(197.77201, 231.285453)"><g><path d="M 24.726562 -38.902344 C 31.542969 -38.902344 36.25 -44.042969 36.25 -50.695312 L 13.632812 -50.695312 C 7.574219 -50.535156 2.707031 -45.609375 2.707031 -39.550781 L 2.707031 0.59375 L 2.8125 0.59375 C 8.980469 0.59375 14.609375 -4.4375 14.609375 -10.605469 L 14.609375 -18.234375 L 19.585938 -18.234375 C 26.835938 -18.234375 31.273438 -22.832031 31.273438 -29.214844 L 14.609375 -29.214844 L 14.609375 -38.902344 Z M 24.726562 -38.902344 "/></g></g></g><g fill="rgb(0%, 0%, 0%)" fill-opacity="1"><g transform="translate(234.663926, 231.285453)"><g><path d="M 13.90625 -20.234375 L 25.589844 -20.234375 L 28.242188 -31.382812 L 13.90625 -31.382812 L 13.90625 -39.0625 L 24.78125 -39.0625 C 31.433594 -39.0625 35.761719 -44.472656 35.761719 -51.074219 L 13.851562 -51.074219 C 7.359375 -51.074219 2.109375 -45.828125 2.109375 -39.386719 L 2.109375 -11.578125 C 2.109375 -5.25 7.25 -0.109375 13.582031 -0.109375 L 21.425781 -0.109375 C 28.082031 -0.109375 33.167969 -5.464844 33.167969 -12.121094 L 13.90625 -12.121094 Z M 13.90625 -20.234375 "/></g></g></g><g fill="rgb(0%, 0%, 0%)" fill-opacity="1"><g transform="translate(272.691805, 231.285453)"><g><path d="M 32.839844 -25.105469 C 30.027344 -28.839844 25.539062 -31.273438 20.503906 -31.273438 L 16.828125 -31.273438 C 14.769531 -31.273438 13.039062 -33.058594 13.039062 -35.113281 L 13.039062 -35.546875 C 13.039062 -37.601562 14.769531 -39.335938 16.828125 -39.335938 L 22.074219 -39.335938 C 28.082031 -39.335938 32.949219 -44.367188 32.949219 -50.914062 L 16.828125 -50.914062 C 8.386719 -50.914062 1.460938 -43.988281 1.460938 -35.546875 L 1.460938 -35.113281 C 1.460938 -31.652344 2.597656 -28.460938 4.542969 -25.917969 C 7.304688 -22.183594 11.792969 -19.75 16.828125 -19.75 L 20.503906 -19.75 C 22.5625 -19.75 24.292969 -17.960938 24.292969 -15.90625 L 24.292969 -15.472656 C 24.292969 -13.417969 22.5625 -11.6875 20.503906 -11.6875 L 14.011719 -11.6875 C 8.007812 -11.6875 3.085938 -6.65625 3.085938 -0.109375 L 20.503906 -0.109375 C 29 -0.109375 35.871094 -7.035156 35.871094 -15.472656 L 35.871094 -15.90625 C 35.871094 -19.371094 34.734375 -22.5625 32.839844 -25.105469 Z M 32.839844 -25.105469 "/></g></g></g><g fill="rgb(0%, 0%, 0%)" fill-opacity="1"><g transform="translate(309.58372, 231.285453)"><g><path d="M 10.660156 -50.695312 C 4.597656 -50.695312 -0.269531 -46.261719 -0.269531 -39.660156 L 13.851562 -39.660156 L 13.851562 -0.109375 C 20.398438 -0.109375 25.699219 -4.976562 25.699219 -11.039062 L 25.699219 -39.660156 L 28.890625 -39.660156 C 34.898438 -39.660156 39.820312 -44.148438 39.820312 -50.695312 Z M 10.660156 -50.695312 "/></g></g></g><g fill="rgb(0%, 0%, 0%)" fill-opacity="1"><g transform="translate(114.428266, 307.035448)"><g><path d="M 52.753906 -43.554688 L 45.175781 -17.152344 L 40.363281 -33.976562 L 45.394531 -50.210938 C 39.28125 -52.101562 32.949219 -49.128906 31.21875 -43.554688 L 23.699219 -16.828125 L 16.125 -43.554688 C 14.390625 -49.128906 8.0625 -52.101562 2 -50.210938 L 15.472656 -6.710938 C 16.015625 -4.921875 17.097656 -3.355469 18.449219 -2.164062 C 19.910156 -0.917969 21.695312 0 23.699219 0 C 25.699219 0 27.484375 -0.917969 28.945312 -2.164062 C 30.296875 -3.355469 31.382812 -4.921875 31.921875 -6.710938 L 34.410156 -14.824219 L 36.953125 -6.710938 C 37.496094 -4.921875 38.578125 -3.355469 39.929688 -2.164062 C 41.390625 -0.917969 43.175781 0 45.175781 0 C 47.179688 0 48.964844 -0.917969 50.425781 -2.164062 C 51.777344 -3.355469 52.859375 -4.921875 53.402344 -6.710938 L 66.875 -50.210938 C 60.8125 -52.101562 54.484375 -49.128906 52.753906 -43.554688 Z M 52.753906 -43.554688 "/></g></g></g><g fill="rgb(22.349548%, 92.939758%, 78.039551%)" fill-opacity="1"><g transform="translate(182.420449, 307.035448)"><g><path d="M 2.707031 -40.199219 L 2.707031 0.109375 C 9.253906 0.109375 14.5 -4.761719 14.5 -10.765625 L 14.5 -51.019531 C 8.007812 -51.019531 2.707031 -46.207031 2.707031 -40.199219 Z M 2.707031 -40.199219 "/></g></g></g><g fill="rgb(0%, 0%, 0%)" fill-opacity="1"><g transform="translate(199.83451, 307.035448)"><g><path d="M 10.660156 -50.695312 C 4.597656 -50.695312 -0.269531 -46.261719 -0.269531 -39.660156 L 13.851562 -39.660156 L 13.851562 -0.109375 C 20.398438 -0.109375 25.699219 -4.976562 25.699219 -11.039062 L 25.699219 -39.660156 L 28.890625 -39.660156 C 34.898438 -39.660156 39.820312 -44.148438 39.820312 -50.695312 Z M 10.660156 -50.695312 "/></g></g></g><g fill="rgb(0%, 0%, 0%)" fill-opacity="1"><g transform="translate(239.485207, 307.035448)"><g><path d="M 28.890625 -39.765625 L 28.890625 -30.460938 L 14.878906 -30.460938 L 14.878906 -50.914062 C 8.167969 -50.914062 2.757812 -45.933594 2.757812 -39.765625 L 2.757812 -30.460938 L 2.707031 -30.460938 C 2.707031 -30.027344 2.707031 -29.59375 2.757812 -29.164062 L 2.757812 0.648438 C 9.46875 0.648438 14.878906 -4.328125 14.878906 -10.496094 L 14.878906 -19.800781 L 28.890625 -19.800781 L 28.890625 0.648438 C 35.601562 0.648438 41.011719 -4.328125 41.011719 -10.496094 L 41.011719 -50.914062 C 34.300781 -50.914062 28.890625 -45.933594 28.890625 -39.765625 Z M 28.890625 -39.765625 "/></g></g></g><g fill="rgb(89.408875%, 32.548523%, 32.548523%)" fill-opacity="1"><g transform="translate(283.354036, 307.035448)"><g><path d="M 2.707031 -40.199219 L 2.707031 0.109375 C 9.253906 0.109375 14.5 -4.761719 14.5 -10.765625 L 14.5 -51.019531 C 8.007812 -51.019531 2.707031 -46.207031 2.707031 -40.199219 Z M 2.707031 -40.199219 "/></g></g></g><g fill="rgb(0%, 0%, 0%)" fill-opacity="1"><g transform="translate(300.768097, 307.035448)"><g><path d="M 34.300781 -39.984375 L 34.300781 -21.371094 L 13.742188 -51.019531 C 7.628906 -51.019531 2.707031 -46.097656 2.707031 -39.984375 L 2.707031 0.109375 C 8.820312 0.109375 13.742188 -4.816406 13.742188 -10.875 L 13.742188 -31.382812 L 34.300781 -3.894531 L 34.300781 0.109375 C 40.363281 0.109375 45.609375 -4.871094 45.609375 -10.929688 L 45.609375 -51.019531 C 39.496094 -51.019531 34.300781 -46.097656 34.300781 -39.984375 Z M 34.300781 -39.984375 "/></g></g></g></svg>