<svg xmlns="http://www.w3.org/2000/svg" xmlns:xlink="http://www.w3.org/1999/xlink" width="600" zoomAndPan="magnify" viewBox="0 0 450 74.999997" height="100" preserveAspectRatio="xMidYMid meet" version="1.0"><defs><g/></defs><g fill="rgb(0%, 0%, 0%)" fill-opacity="1"><g transform="translate(9.518711, 67.956177)"><g><path d="M 27.21875 -42.828125 C 34.726562 -42.828125 39.90625 -48.484375 39.90625 -55.8125 L 15.011719 -55.8125 C 8.339844 -55.632812 2.976562 -50.210938 2.976562 -43.539062 L 2.976562 0.65625 L 3.097656 0.65625 C 9.886719 0.65625 16.082031 -4.882812 16.082031 -11.675781 L 16.082031 -20.074219 L 21.5625 -20.074219 C 29.542969 -20.074219 34.429688 -25.136719 34.429688 -32.164062 L 16.082031 -32.164062 L 16.082031 -42.828125 Z M 27.21875 -42.828125 "/></g></g></g><g fill="rgb(0%, 0%, 0%)" fill-opacity="1"><g transform="translate(50.133638, 67.956177)"><g><path d="M 15.308594 -22.277344 L 28.171875 -22.277344 L 31.09375 -34.546875 L 15.308594 -34.546875 L 15.308594 -43.003906 L 27.28125 -43.003906 C 34.605469 -43.003906 39.371094 -48.960938 39.371094 -56.226562 L 15.25 -56.226562 C 8.101562 -56.226562 2.324219 -50.449219 2.324219 -43.363281 L 2.324219 -12.746094 C 2.324219 -5.777344 7.980469 -0.117188 14.949219 -0.117188 L 23.585938 -0.117188 C 30.914062 -0.117188 36.511719 -6.015625 36.511719 -13.34375 L 15.308594 -13.34375 Z M 15.308594 -22.277344 "/></g></g></g><g fill="rgb(0%, 0%, 0%)" fill-opacity="1"><g transform="translate(91.99917, 67.956177)"><g><path d="M 36.15625 -27.636719 C 33.058594 -31.746094 28.113281 -34.429688 22.574219 -34.429688 L 18.523438 -34.429688 C 16.261719 -34.429688 14.355469 -36.394531 14.355469 -38.65625 L 14.355469 -39.132812 C 14.355469 -41.398438 16.261719 -43.300781 18.523438 -43.300781 L 24.300781 -43.300781 C 30.914062 -43.300781 36.273438 -48.84375 36.273438 -56.050781 L 18.523438 -56.050781 C 9.230469 -56.050781 1.609375 -48.425781 1.609375 -39.132812 L 1.609375 -38.65625 C 1.609375 -34.84375 2.859375 -31.332031 5.003906 -28.53125 C 8.042969 -24.421875 12.984375 -21.742188 18.523438 -21.742188 L 22.574219 -21.742188 C 24.839844 -21.742188 26.742188 -19.773438 26.742188 -17.511719 L 26.742188 -17.035156 C 26.742188 -14.773438 24.839844 -12.867188 22.574219 -12.867188 L 15.425781 -12.867188 C 8.816406 -12.867188 3.394531 -7.328125 3.394531 -0.117188 L 22.574219 -0.117188 C 31.925781 -0.117188 39.492188 -7.742188 39.492188 -17.035156 L 39.492188 -17.511719 C 39.492188 -21.324219 38.238281 -24.839844 36.15625 -27.636719 Z M 36.15625 -27.636719 "/></g></g></g><g fill="rgb(0%, 0%, 0%)" fill-opacity="1"><g transform="translate(132.614096, 67.956177)"><g><path d="M 11.734375 -55.8125 C 5.0625 -55.8125 -0.296875 -50.925781 -0.296875 -43.660156 L 15.25 -43.660156 L 15.25 -0.117188 C 22.457031 -0.117188 28.292969 -5.480469 28.292969 -12.152344 L 28.292969 -43.660156 L 31.808594 -43.660156 C 38.417969 -43.660156 43.839844 -48.605469 43.839844 -55.8125 Z M 11.734375 -55.8125 "/></g></g></g><g fill="rgb(0%, 0%, 0%)" fill-opacity="1"><g transform="translate(176.266212, 67.956177)"><g><path d="M 58.074219 -47.949219 L 49.734375 -18.882812 L 44.433594 -37.40625 L 49.972656 -55.273438 C 43.242188 -57.359375 36.273438 -54.082031 34.367188 -47.949219 L 26.089844 -18.523438 L 17.75 -47.949219 C 15.84375 -54.082031 8.875 -57.359375 2.203125 -55.273438 L 17.035156 -7.386719 C 17.628906 -5.421875 18.820312 -3.691406 20.3125 -2.382812 C 21.917969 -1.011719 23.886719 0 26.089844 0 C 28.292969 0 30.257812 -1.011719 31.867188 -2.382812 C 33.355469 -3.691406 34.546875 -5.421875 35.140625 -7.386719 L 37.882812 -16.320312 L 40.683594 -7.386719 C 41.277344 -5.421875 42.46875 -3.691406 43.957031 -2.382812 C 45.566406 -1.011719 47.53125 0 49.734375 0 C 51.9375 0 53.90625 -1.011719 55.511719 -2.382812 C 57.003906 -3.691406 58.195312 -5.421875 58.789062 -7.386719 L 73.621094 -55.273438 C 66.949219 -57.359375 59.980469 -54.082031 58.074219 -47.949219 Z M 58.074219 -47.949219 "/></g></g></g><g fill="rgb(22.349548%, 92.939758%, 78.039551%)" fill-opacity="1"><g transform="translate(251.1117, 67.956177)"><g><path d="M 2.976562 -44.253906 L 2.976562 0.117188 C 10.183594 0.117188 15.964844 -5.242188 15.964844 -11.851562 L 15.964844 -56.167969 C 8.816406 -56.167969 2.976562 -50.867188 2.976562 -44.253906 Z M 2.976562 -44.253906 "/></g></g></g><g fill="rgb(0%, 0%, 0%)" fill-opacity="1"><g transform="translate(270.282779, 67.956177)"><g><path d="M 11.734375 -55.8125 C 5.0625 -55.8125 -0.296875 -50.925781 -0.296875 -43.660156 L 15.25 -43.660156 L 15.25 -0.117188 C 22.457031 -0.117188 28.292969 -5.480469 28.292969 -12.152344 L 28.292969 -43.660156 L 31.808594 -43.660156 C 38.417969 -43.660156 43.839844 -48.605469 43.839844 -55.8125 Z M 11.734375 -55.8125 "/></g></g></g><g fill="rgb(0%, 0%, 0%)" fill-opacity="1"><g transform="translate(313.934895, 67.956177)"><g><path d="M 31.808594 -43.777344 L 31.808594 -33.535156 L 16.378906 -33.535156 L 16.378906 -56.050781 C 8.992188 -56.050781 3.039062 -50.570312 3.039062 -43.777344 L 3.039062 -33.535156 L 2.976562 -33.535156 C 2.976562 -33.058594 2.976562 -32.582031 3.039062 -32.105469 L 3.039062 0.714844 C 10.421875 0.714844 16.378906 -4.765625 16.378906 -11.554688 L 16.378906 -21.800781 L 31.808594 -21.800781 L 31.808594 0.714844 C 39.191406 0.714844 45.148438 -4.765625 45.148438 -11.554688 L 45.148438 -56.050781 C 37.761719 -56.050781 31.808594 -50.570312 31.808594 -43.777344 Z M 31.808594 -43.777344 "/></g></g></g><g fill="rgb(89.408875%, 32.548523%, 32.548523%)" fill-opacity="1"><g transform="translate(362.229176, 67.956177)"><g><path d="M 2.976562 -44.253906 L 2.976562 0.117188 C 10.183594 0.117188 15.964844 -5.242188 15.964844 -11.851562 L 15.964844 -56.167969 C 8.816406 -56.167969 2.976562 -50.867188 2.976562 -44.253906 Z M 2.976562 -44.253906 "/></g></g></g><g fill="rgb(0%, 0%, 0%)" fill-opacity="1"><g transform="translate(381.400255, 67.956177)"><g><path d="M 37.761719 -44.015625 L 37.761719 -23.527344 L 15.128906 -56.167969 C 8.398438 -56.167969 2.976562 -50.75 2.976562 -44.015625 L 2.976562 0.117188 C 9.707031 0.117188 15.128906 -5.300781 15.128906 -11.972656 L 15.128906 -34.546875 L 37.761719 -4.289062 L 37.761719 0.117188 C 44.433594 0.117188 50.210938 -5.359375 50.210938 -12.03125 L 50.210938 -56.167969 C 43.480469 -56.167969 37.761719 -50.75 37.761719 -44.015625 Z M 37.761719 -44.015625 "/></g></g></g></svg>