<svg xmlns="http://www.w3.org/2000/svg" xmlns:xlink="http://www.w3.org/1999/xlink" width="500" zoomAndPan="magnify" viewBox="0 0 375 374.999991" height="500" preserveAspectRatio="xMidYMid meet" version="1.0"><defs><g/></defs><g fill="rgb(0%, 0%, 0%)" fill-opacity="1"><g transform="translate(9.940839, 212.596201)"><g><path d="M 22.429688 -35.289062 C 28.613281 -35.289062 32.882812 -39.953125 32.882812 -45.988281 L 12.367188 -45.988281 C 6.871094 -45.839844 2.453125 -41.375 2.453125 -35.878906 L 2.453125 0.539062 L 2.550781 0.539062 C 8.148438 0.539062 13.25 -4.023438 13.25 -9.621094 L 13.25 -16.539062 L 17.765625 -16.539062 C 24.34375 -16.539062 28.367188 -20.710938 28.367188 -26.503906 L 13.25 -26.503906 L 13.25 -35.289062 Z M 22.429688 -35.289062 "/></g></g></g><g fill="rgb(0%, 0%, 0%)" fill-opacity="1"><g transform="translate(43.408025, 212.596201)"><g><path d="M 12.613281 -18.355469 L 23.214844 -18.355469 L 25.621094 -28.46875 L 12.613281 -28.46875 L 12.613281 -35.4375 L 22.480469 -35.4375 C 28.515625 -35.4375 32.441406 -40.34375 32.441406 -46.332031 L 12.566406 -46.332031 C 6.675781 -46.332031 1.914062 -41.570312 1.914062 -35.730469 L 1.914062 -10.503906 C 1.914062 -4.761719 6.578125 -0.0976562 12.320312 -0.0976562 L 19.4375 -0.0976562 C 25.472656 -0.0976562 30.085938 -4.957031 30.085938 -10.996094 L 12.613281 -10.996094 Z M 12.613281 -18.355469 "/></g></g></g><g fill="rgb(0%, 0%, 0%)" fill-opacity="1"><g transform="translate(77.905726, 212.596201)"><g><path d="M 29.792969 -22.773438 C 27.238281 -26.160156 23.167969 -28.367188 18.601562 -28.367188 L 15.265625 -28.367188 C 13.398438 -28.367188 11.828125 -29.988281 11.828125 -31.855469 L 11.828125 -32.246094 C 11.828125 -34.113281 13.398438 -35.683594 15.265625 -35.683594 L 20.023438 -35.683594 C 25.472656 -35.683594 29.890625 -40.246094 29.890625 -46.183594 L 15.265625 -46.183594 C 7.609375 -46.183594 1.324219 -39.902344 1.324219 -32.246094 L 1.324219 -31.855469 C 1.324219 -28.710938 2.355469 -25.816406 4.121094 -23.511719 C 6.625 -20.125 10.699219 -17.914062 15.265625 -17.914062 L 18.601562 -17.914062 C 20.46875 -17.914062 22.039062 -16.296875 22.039062 -14.429688 L 22.039062 -14.039062 C 22.039062 -12.171875 20.46875 -10.601562 18.601562 -10.601562 L 12.710938 -10.601562 C 7.265625 -10.601562 2.796875 -6.035156 2.796875 -0.0976562 L 18.601562 -0.0976562 C 26.308594 -0.0976562 32.539062 -6.378906 32.539062 -14.039062 L 32.539062 -14.429688 C 32.539062 -17.570312 31.511719 -20.46875 29.792969 -22.773438 Z M 29.792969 -22.773438 "/></g></g></g><g fill="rgb(0%, 0%, 0%)" fill-opacity="1"><g transform="translate(111.372912, 212.596201)"><g><path d="M 9.667969 -45.988281 C 4.171875 -45.988281 -0.246094 -41.964844 -0.246094 -35.976562 L 12.566406 -35.976562 L 12.566406 -0.0976562 C 18.503906 -0.0976562 23.3125 -4.515625 23.3125 -10.011719 L 23.3125 -35.976562 L 26.210938 -35.976562 C 31.65625 -35.976562 36.125 -40.050781 36.125 -45.988281 Z M 9.667969 -45.988281 "/></g></g></g><g fill="rgb(0%, 0%, 0%)" fill-opacity="1"><g transform="translate(147.342778, 212.596201)"><g><path d="M 47.855469 -39.511719 L 40.984375 -15.558594 L 36.613281 -30.824219 L 41.179688 -45.546875 C 35.632812 -47.265625 29.890625 -44.566406 28.320312 -39.511719 L 21.496094 -15.265625 L 14.625 -39.511719 C 13.054688 -44.566406 7.3125 -47.265625 1.816406 -45.546875 L 14.039062 -6.085938 C 14.527344 -4.464844 15.507812 -3.042969 16.738281 -1.964844 C 18.0625 -0.835938 19.679688 0 21.496094 0 C 23.3125 0 24.933594 -0.835938 26.257812 -1.964844 C 27.484375 -3.042969 28.46875 -4.464844 28.957031 -6.085938 L 31.214844 -13.449219 L 33.523438 -6.085938 C 34.011719 -4.464844 34.996094 -3.042969 36.222656 -1.964844 C 37.546875 -0.835938 39.167969 0 40.984375 0 C 42.796875 0 44.417969 -0.835938 45.742188 -1.964844 C 46.96875 -3.042969 47.953125 -4.464844 48.441406 -6.085938 L 60.664062 -45.546875 C 55.167969 -47.265625 49.425781 -44.566406 47.855469 -39.511719 Z M 47.855469 -39.511719 "/></g></g></g><g fill="rgb(22.349548%, 92.939758%, 78.039551%)" fill-opacity="1"><g transform="translate(209.016358, 212.596201)"><g><path d="M 2.453125 -36.46875 L 2.453125 0.0976562 C 8.394531 0.0976562 13.152344 -4.320312 13.152344 -9.765625 L 13.152344 -46.285156 C 7.265625 -46.285156 2.453125 -41.914062 2.453125 -36.46875 Z M 2.453125 -36.46875 "/></g></g></g><g fill="rgb(0%, 0%, 0%)" fill-opacity="1"><g transform="translate(224.813557, 212.596201)"><g><path d="M 9.667969 -45.988281 C 4.171875 -45.988281 -0.246094 -41.964844 -0.246094 -35.976562 L 12.566406 -35.976562 L 12.566406 -0.0976562 C 18.503906 -0.0976562 23.3125 -4.515625 23.3125 -10.011719 L 23.3125 -35.976562 L 26.210938 -35.976562 C 31.65625 -35.976562 36.125 -40.050781 36.125 -45.988281 Z M 9.667969 -45.988281 "/></g></g></g><g fill="rgb(0%, 0%, 0%)" fill-opacity="1"><g transform="translate(260.783424, 212.596201)"><g><path d="M 26.210938 -36.074219 L 26.210938 -27.632812 L 13.496094 -27.632812 L 13.496094 -46.183594 C 7.410156 -46.183594 2.503906 -41.667969 2.503906 -36.074219 L 2.503906 -27.632812 L 2.453125 -27.632812 C 2.453125 -27.238281 2.453125 -26.847656 2.503906 -26.453125 L 2.503906 0.589844 C 8.589844 0.589844 13.496094 -3.925781 13.496094 -9.523438 L 13.496094 -17.964844 L 26.210938 -17.964844 L 26.210938 0.589844 C 32.296875 0.589844 37.203125 -3.925781 37.203125 -9.523438 L 37.203125 -46.183594 C 31.117188 -46.183594 26.210938 -41.667969 26.210938 -36.074219 Z M 26.210938 -36.074219 "/></g></g></g><g fill="rgb(89.408875%, 32.548523%, 32.548523%)" fill-opacity="1"><g transform="translate(300.578491, 212.596201)"><g><path d="M 2.453125 -36.46875 L 2.453125 0.0976562 C 8.394531 0.0976562 13.152344 -4.320312 13.152344 -9.765625 L 13.152344 -46.285156 C 7.265625 -46.285156 2.453125 -41.914062 2.453125 -36.46875 Z M 2.453125 -36.46875 "/></g></g></g><g fill="rgb(0%, 0%, 0%)" fill-opacity="1"><g transform="translate(316.375689, 212.596201)"><g><path d="M 31.117188 -36.269531 L 31.117188 -19.386719 L 12.464844 -46.285156 C 6.921875 -46.285156 2.453125 -41.816406 2.453125 -36.269531 L 2.453125 0.0976562 C 8 0.0976562 12.464844 -4.367188 12.464844 -9.867188 L 12.464844 -28.46875 L 31.117188 -3.535156 L 31.117188 0.0976562 C 36.613281 0.0976562 41.375 -4.417969 41.375 -9.914062 L 41.375 -46.285156 C 35.828125 -46.285156 31.117188 -41.816406 31.117188 -36.269531 Z M 31.117188 -36.269531 "/></g></g></g></svg>