<svg xmlns="http://www.w3.org/2000/svg" xmlns:xlink="http://www.w3.org/1999/xlink" width="128" zoomAndPan="magnify" viewBox="0 0 96 95.999999" height="128" preserveAspectRatio="xMidYMid meet" version="1.0"><defs><clipPath id="id1"><path d="M 16.320312 0 L 79.320312 0 L 79.320312 96 L 16.320312 96 Z M 16.320312 0 " clip-rule="nonzero"/></clipPath></defs><g clip-path="url(#id1)"><path fill="rgb(89.408875%, 32.548523%, 32.548523%)" d="M 47.8125 0 C 30.429688 0 16.339844 13.90625 16.339844 31.386719 C 16.339844 52.710938 43.027344 89.5625 47.8125 96 C 52.601562 89.5625 79.289062 52.710938 79.289062 31.386719 C 79.289062 13.90625 65.199219 0 47.8125 0 " fill-opacity="1" fill-rule="nonzero"/></g><path fill="rgb(22.349548%, 92.939758%, 78.039551%)" d="M 67.238281 30.675781 C 67.238281 41.464844 58.542969 50.207031 47.8125 50.207031 C 37.085938 50.207031 28.390625 41.464844 28.390625 30.675781 C 28.390625 19.890625 37.085938 11.144531 47.8125 11.144531 C 58.542969 11.144531 67.238281 19.890625 67.238281 30.675781 " fill-opacity="1" fill-rule="nonzero"/><path fill="rgb(9.01947%, 9.01947%, 9.01947%)" d="M 34.234375 28.136719 L 35.421875 28.136719 L 35.421875 26.113281 L 37.152344 23.285156 L 35.820312 23.285156 L 35.289062 24.449219 C 35.132812 24.796875 35.007812 25.078125 34.890625 25.378906 L 34.875 25.378906 C 34.75 25.0625 34.632812 24.800781 34.46875 24.449219 L 33.9375 23.285156 L 32.570312 23.285156 L 34.234375 26.148438 L 34.234375 28.136719 " fill-opacity="1" fill-rule="nonzero"/><path fill="rgb(9.01947%, 9.01947%, 9.01947%)" d="M 39.652344 27.34375 C 38.855469 27.34375 38.371094 26.675781 38.371094 25.71875 C 38.371094 24.773438 38.839844 24.070312 39.652344 24.070312 C 40.46875 24.070312 40.914062 24.816406 40.914062 25.695312 C 40.914062 26.640625 40.453125 27.34375 39.652344 27.34375 Z M 39.675781 23.199219 C 38.128906 23.199219 37.113281 24.285156 37.113281 25.738281 C 37.113281 27.128906 38.035156 28.214844 39.589844 28.214844 C 41.132812 28.214844 42.171875 27.257812 42.171875 25.660156 C 42.171875 24.3125 41.289062 23.199219 39.675781 23.199219 " fill-opacity="1" fill-rule="nonzero"/><path fill="rgb(9.01947%, 9.01947%, 9.01947%)" d="M 45.050781 28.214844 C 46.425781 28.214844 47.246094 27.503906 47.246094 26.003906 L 47.246094 23.285156 L 46.058594 23.285156 L 46.058594 26.070312 C 46.058594 26.933594 45.714844 27.335938 45.089844 27.335938 C 44.488281 27.335938 44.136719 26.914062 44.136719 26.070312 L 44.136719 23.285156 L 42.953125 23.285156 L 42.953125 25.992188 C 42.953125 27.53125 43.726562 28.214844 45.050781 28.214844 " fill-opacity="1" fill-rule="nonzero"/><path fill="rgb(9.01947%, 9.01947%, 9.01947%)" d="M 51.558594 25.039062 C 51.644531 24.757812 51.722656 24.394531 51.800781 24.105469 L 51.816406 24.105469 C 51.894531 24.394531 51.988281 24.753906 52.082031 25.039062 L 52.410156 26.070312 L 51.246094 26.070312 Z M 51.074219 26.890625 L 52.582031 26.890625 L 52.988281 28.136719 L 54.277344 28.136719 L 52.636719 23.285156 L 51.074219 23.285156 L 49.476562 28.136719 L 50.703125 28.136719 L 51.074219 26.890625 " fill-opacity="1" fill-rule="nonzero"/><path fill="rgb(9.01947%, 9.01947%, 9.01947%)" d="M 56.617188 25.4375 L 56.148438 25.4375 L 56.148438 24.105469 C 56.234375 24.082031 56.398438 24.070312 56.6875 24.070312 C 57.234375 24.070312 57.5625 24.300781 57.5625 24.738281 C 57.5625 25.164062 57.210938 25.4375 56.617188 25.4375 Z M 58.941406 28.136719 C 58.839844 27.949219 58.6875 27.316406 58.519531 26.761719 C 58.390625 26.316406 58.1875 25.996094 57.820312 25.859375 L 57.820312 25.839844 C 58.273438 25.6875 58.746094 25.265625 58.746094 24.652344 C 58.746094 24.207031 58.578125 23.859375 58.257812 23.628906 C 57.882812 23.355469 57.335938 23.25 56.554688 23.25 C 55.914062 23.25 55.355469 23.292969 54.96875 23.347656 L 54.96875 28.136719 L 56.148438 28.136719 L 56.148438 26.226562 L 56.5 26.226562 C 56.992188 26.234375 57.21875 26.394531 57.367188 27.003906 C 57.515625 27.605469 57.648438 27.992188 57.726562 28.136719 L 58.941406 28.136719 " fill-opacity="1" fill-rule="nonzero"/><path fill="rgb(9.01947%, 9.01947%, 9.01947%)" d="M 62.953125 27.234375 L 60.792969 27.234375 L 60.792969 26.085938 L 62.726562 26.085938 L 62.726562 25.191406 L 60.792969 25.191406 L 60.792969 24.183594 L 62.84375 24.183594 L 62.84375 23.285156 L 59.605469 23.285156 L 59.605469 28.136719 L 62.953125 28.136719 L 62.953125 27.234375 " fill-opacity="1" fill-rule="nonzero"/><path fill="rgb(9.01947%, 9.01947%, 9.01947%)" d="M 38.714844 33 L 35.394531 33 L 35.394531 29.785156 L 33.386719 29.785156 L 33.386719 38.15625 L 35.394531 38.15625 L 35.394531 34.652344 L 38.714844 34.652344 L 38.714844 38.15625 L 40.722656 38.15625 L 40.722656 29.785156 L 38.714844 29.785156 L 38.714844 33 " fill-opacity="1" fill-rule="nonzero"/><path fill="rgb(9.01947%, 9.01947%, 9.01947%)" d="M 44.5 34.617188 L 47.78125 34.617188 L 47.78125 33.078125 L 44.5 33.078125 L 44.5 31.335938 L 47.976562 31.335938 L 47.976562 29.785156 L 42.492188 29.785156 L 42.492188 38.15625 L 48.164062 38.15625 L 48.164062 36.605469 L 44.5 36.605469 L 44.5 34.617188 " fill-opacity="1" fill-rule="nonzero"/><path fill="rgb(9.01947%, 9.01947%, 9.01947%)" d="M 52.324219 33.5 L 51.53125 33.5 L 51.53125 31.199219 C 51.675781 31.164062 51.957031 31.140625 52.445312 31.140625 C 53.371094 31.140625 53.925781 31.535156 53.925781 32.292969 C 53.925781 33.027344 53.328125 33.5 52.324219 33.5 Z M 54.359375 34.230469 L 54.359375 34.195312 C 55.128906 33.933594 55.933594 33.199219 55.933594 32.144531 C 55.933594 31.375 55.640625 30.777344 55.101562 30.382812 C 54.464844 29.910156 53.542969 29.722656 52.21875 29.722656 C 51.136719 29.722656 50.183594 29.796875 49.535156 29.898438 L 49.535156 38.15625 L 51.53125 38.15625 L 51.53125 34.863281 L 52.125 34.863281 C 52.960938 34.878906 53.34375 35.152344 53.59375 36.207031 C 53.84375 37.238281 54.070312 37.90625 54.203125 38.15625 L 56.261719 38.15625 C 56.09375 37.832031 55.828125 36.742188 55.550781 35.785156 C 55.324219 35.015625 54.980469 34.46875 54.359375 34.230469 " fill-opacity="1" fill-rule="nonzero"/><path fill="rgb(9.01947%, 9.01947%, 9.01947%)" d="M 59.394531 36.605469 L 59.394531 34.617188 L 62.671875 34.617188 L 62.671875 33.078125 L 59.394531 33.078125 L 59.394531 31.335938 L 62.871094 31.335938 L 62.871094 29.785156 L 57.386719 29.785156 L 57.386719 38.15625 L 63.054688 38.15625 L 63.054688 36.605469 L 59.394531 36.605469 " fill-opacity="1" fill-rule="nonzero"/></svg>