<svg xmlns="http://www.w3.org/2000/svg" xmlns:xlink="http://www.w3.org/1999/xlink" width="512" zoomAndPan="magnify" viewBox="0 0 384 191.999996" height="256" preserveAspectRatio="xMidYMid meet" version="1.0"><defs><g/><clipPath id="id1"><path d="M 80 84 L 123 84 L 123 164 L 80 164 Z M 80 84 " clip-rule="nonzero"/></clipPath><clipPath id="id2"><path d="M 159.910156 47.871094 L 121.585938 164.433594 L 5.019531 126.109375 L 43.347656 9.542969 Z M 159.910156 47.871094 " clip-rule="nonzero"/></clipPath><clipPath id="id3"><path d="M 159.910156 47.871094 L 121.585938 164.433594 L 5.019531 126.109375 L 43.347656 9.542969 Z M 159.910156 47.871094 " clip-rule="nonzero"/></clipPath><clipPath id="id4"><path d="M 21 25 L 144 25 L 144 142 L 21 142 Z M 21 25 " clip-rule="nonzero"/></clipPath><clipPath id="id5"><path d="M 159.910156 47.871094 L 121.585938 164.433594 L 5.019531 126.109375 L 43.347656 9.542969 Z M 159.910156 47.871094 " clip-rule="nonzero"/></clipPath><clipPath id="id6"><path d="M 159.910156 47.871094 L 121.585938 164.433594 L 5.019531 126.109375 L 43.347656 9.542969 Z M 159.910156 47.871094 " clip-rule="nonzero"/></clipPath><clipPath id="id7"><path d="M 33 37 L 132 37 L 132 131 L 33 131 Z M 33 37 " clip-rule="nonzero"/></clipPath><clipPath id="id8"><path d="M 159.910156 47.871094 L 121.585938 164.433594 L 5.019531 126.109375 L 43.347656 9.542969 Z M 159.910156 47.871094 " clip-rule="nonzero"/></clipPath><clipPath id="id9"><path d="M 159.910156 47.871094 L 121.585938 164.433594 L 5.019531 126.109375 L 43.347656 9.542969 Z M 159.910156 47.871094 " clip-rule="nonzero"/></clipPath><clipPath id="id10"><path d="M 66 62 L 107 62 L 107 109 L 66 109 Z M 66 62 " clip-rule="nonzero"/></clipPath><clipPath id="id11"><path d="M 159.910156 47.871094 L 121.585938 164.433594 L 5.019531 126.109375 L 43.347656 9.542969 Z M 159.910156 47.871094 " clip-rule="nonzero"/></clipPath><clipPath id="id12"><path d="M 159.910156 47.871094 L 121.585938 164.433594 L 5.019531 126.109375 L 43.347656 9.542969 Z M 159.910156 47.871094 " clip-rule="nonzero"/></clipPath><clipPath id="id13"><path d="M 50 50 L 105 50 L 105 71 L 50 71 Z M 50 50 " clip-rule="nonzero"/></clipPath><clipPath id="id14"><path d="M 159.910156 47.871094 L 121.585938 164.433594 L 5.019531 126.109375 L 43.347656 9.542969 Z M 159.910156 47.871094 " clip-rule="nonzero"/></clipPath><clipPath id="id15"><path d="M 159.910156 47.871094 L 121.585938 164.433594 L 5.019531 126.109375 L 43.347656 9.542969 Z M 159.910156 47.871094 " clip-rule="nonzero"/></clipPath><clipPath id="id16"><path d="M 96 63 L 120 63 L 120 120 L 96 120 Z M 96 63 " clip-rule="nonzero"/></clipPath><clipPath id="id17"><path d="M 159.910156 47.871094 L 121.585938 164.433594 L 5.019531 126.109375 L 43.347656 9.542969 Z M 159.910156 47.871094 " clip-rule="nonzero"/></clipPath><clipPath id="id18"><path d="M 159.910156 47.871094 L 121.585938 164.433594 L 5.019531 126.109375 L 43.347656 9.542969 Z M 159.910156 47.871094 " clip-rule="nonzero"/></clipPath><clipPath id="id19"><path d="M 51 103 L 68 103 L 68 120 L 51 120 Z M 51 103 " clip-rule="nonzero"/></clipPath><clipPath id="id20"><path d="M 159.910156 47.871094 L 121.585938 164.433594 L 5.019531 126.109375 L 43.347656 9.542969 Z M 159.910156 47.871094 " clip-rule="nonzero"/></clipPath><clipPath id="id21"><path d="M 159.910156 47.871094 L 121.585938 164.433594 L 5.019531 126.109375 L 43.347656 9.542969 Z M 159.910156 47.871094 " clip-rule="nonzero"/></clipPath><clipPath id="id22"><path d="M 71 133 L 88 133 L 88 150 L 71 150 Z M 71 133 " clip-rule="nonzero"/></clipPath><clipPath id="id23"><path d="M 159.910156 47.871094 L 121.585938 164.433594 L 5.019531 126.109375 L 43.347656 9.542969 Z M 159.910156 47.871094 " clip-rule="nonzero"/></clipPath><clipPath id="id24"><path d="M 159.910156 47.871094 L 121.585938 164.433594 L 5.019531 126.109375 L 43.347656 9.542969 Z M 159.910156 47.871094 " clip-rule="nonzero"/></clipPath><clipPath id="id25"><path d="M 10 102 L 27 102 L 27 120 L 10 120 Z M 10 102 " clip-rule="nonzero"/></clipPath><clipPath id="id26"><path d="M 159.910156 47.871094 L 121.585938 164.433594 L 5.019531 126.109375 L 43.347656 9.542969 Z M 159.910156 47.871094 " clip-rule="nonzero"/></clipPath><clipPath id="id27"><path d="M 159.910156 47.871094 L 121.585938 164.433594 L 5.019531 126.109375 L 43.347656 9.542969 Z M 159.910156 47.871094 " clip-rule="nonzero"/></clipPath><clipPath id="id28"><path d="M 70 74 L 95 74 L 95 100 L 70 100 Z M 70 74 " clip-rule="nonzero"/></clipPath><clipPath id="id29"><path d="M 159.910156 47.871094 L 121.585938 164.433594 L 5.019531 126.109375 L 43.347656 9.542969 Z M 159.910156 47.871094 " clip-rule="nonzero"/></clipPath><clipPath id="id30"><path d="M 159.910156 47.871094 L 121.585938 164.433594 L 5.019531 126.109375 L 43.347656 9.542969 Z M 159.910156 47.871094 " clip-rule="nonzero"/></clipPath><clipPath id="id31"><path d="M 99 54 L 114 54 L 114 69 L 99 69 Z M 99 54 " clip-rule="nonzero"/></clipPath><clipPath id="id32"><path d="M 159.910156 47.871094 L 121.585938 164.433594 L 5.019531 126.109375 L 43.347656 9.542969 Z M 159.910156 47.871094 " clip-rule="nonzero"/></clipPath><clipPath id="id33"><path d="M 159.910156 47.871094 L 121.585938 164.433594 L 5.019531 126.109375 L 43.347656 9.542969 Z M 159.910156 47.871094 " clip-rule="nonzero"/></clipPath></defs><path fill="rgb(22.349548%, 92.939758%, 78.039551%)" d="M 108.535156 135.558594 C 109.910156 138.289062 108.796875 141.613281 106.042969 142.980469 L 31.632812 179.9375 C 28.878906 181.304688 25.53125 180.199219 24.15625 177.46875 L 1.585938 132.683594 C 0.207031 129.949219 1.320312 126.625 4.074219 125.261719 L 78.488281 88.300781 C 81.238281 86.933594 84.585938 88.039062 85.960938 90.773438 Z M 108.535156 135.558594 " fill-opacity="1" fill-rule="nonzero"/><path fill="rgb(14.509583%, 61.569214%, 51.759338%)" d="M 101.035156 120.667969 L 105.433594 129.394531 L 21.050781 171.300781 L 16.652344 162.578125 Z M 101.035156 120.667969 " fill-opacity="1" fill-rule="nonzero"/><path fill="rgb(89.408875%, 32.548523%, 32.548523%)" d="M 12.164062 134.039062 L 32.128906 124.125 L 38.550781 136.863281 L 18.585938 146.78125 Z M 12.164062 134.039062 " fill-opacity="1" fill-rule="nonzero"/><path fill="rgb(100%, 100%, 100%)" d="M 48.371094 116.0625 L 78.660156 101.023438 L 80.507812 104.6875 L 50.21875 119.726562 Z M 48.371094 116.0625 " fill-opacity="1" fill-rule="nonzero"/><path fill="rgb(100%, 100%, 100%)" d="M 52.945312 125.136719 L 83.234375 110.097656 L 85.078125 113.761719 L 54.792969 128.800781 Z M 52.945312 125.136719 " fill-opacity="1" fill-rule="nonzero"/><g clip-path="url(#id1)"><g clip-path="url(#id2)"><g clip-path="url(#id3)"><path fill="rgb(89.408875%, 32.548523%, 32.548523%)" d="M 80.460938 86.222656 C 80.625 85.726562 80.976562 85.292969 81.480469 85.039062 C 82.488281 84.527344 83.714844 84.933594 84.222656 85.941406 L 121.976562 160.679688 C 122.484375 161.683594 122.082031 162.914062 121.074219 163.421875 C 120.066406 163.929688 118.839844 163.527344 118.332031 162.519531 L 80.578125 87.78125 C 80.324219 87.277344 80.296875 86.71875 80.460938 86.222656 Z M 80.460938 86.222656 " fill-opacity="1" fill-rule="nonzero"/></g></g></g><g clip-path="url(#id4)"><g clip-path="url(#id5)"><g clip-path="url(#id6)"><path fill="rgb(89.408875%, 32.548523%, 32.548523%)" d="M 24.214844 67.730469 C 34.765625 35.644531 69.449219 18.125 101.53125 28.675781 C 133.617188 39.222656 151.136719 73.90625 140.585938 105.992188 C 135.476562 121.53125 124.617188 134.15625 110.015625 141.53125 C 109.53125 141.777344 108.972656 141.816406 108.457031 141.648438 C 107.941406 141.480469 107.515625 141.113281 107.273438 140.628906 L 80.578125 87.78125 C 80.070312 86.773438 80.472656 85.546875 81.480469 85.039062 C 82.488281 84.53125 83.714844 84.933594 84.222656 85.941406 L 109.980469 136.933594 C 122.699219 129.945312 132.152344 118.574219 136.707031 104.714844 C 146.550781 74.773438 130.199219 42.398438 100.257812 32.554688 C 70.3125 22.707031 37.941406 39.0625 28.09375 69.003906 C 25.839844 75.859375 24.902344 82.953125 25.3125 90.09375 C 25.375 91.21875 24.515625 92.183594 23.390625 92.25 C 22.261719 92.3125 21.296875 91.453125 21.234375 90.324219 C 20.796875 82.671875 21.800781 75.070312 24.214844 67.730469 Z M 24.214844 67.730469 " fill-opacity="1" fill-rule="nonzero"/></g></g></g><g clip-path="url(#id7)"><g clip-path="url(#id8)"><g clip-path="url(#id9)"><path fill="rgb(89.408875%, 32.548523%, 32.548523%)" d="M 35.851562 71.554688 C 44.292969 45.886719 72.039062 31.875 97.707031 40.3125 C 123.371094 48.75 137.386719 76.496094 128.949219 102.164062 C 124.867188 114.582031 116.179688 124.671875 104.484375 130.578125 C 103.476562 131.085938 102.25 130.683594 101.742188 129.675781 L 80.578125 87.78125 C 80.070312 86.773438 80.472656 85.546875 81.480469 85.039062 C 82.488281 84.527344 83.714844 84.933594 84.222656 85.941406 L 104.445312 125.972656 C 114.253906 120.460938 121.542969 111.621094 125.070312 100.890625 C 132.804688 77.363281 119.957031 51.925781 96.429688 44.191406 C 72.902344 36.457031 47.46875 49.300781 39.730469 72.832031 C 38.910156 75.324219 38.308594 77.894531 37.9375 80.464844 C 37.789062 81.582031 36.742188 82.355469 35.625 82.195312 C 34.507812 82.035156 33.734375 81 33.894531 79.886719 C 34.300781 77.078125 34.957031 74.277344 35.851562 71.554688 Z M 35.851562 71.554688 " fill-opacity="1" fill-rule="nonzero"/></g></g></g><g clip-path="url(#id10)"><g clip-path="url(#id11)"><g clip-path="url(#id12)"><path fill="rgb(89.408875%, 32.548523%, 32.548523%)" d="M 67.03125 68.230469 C 67.160156 67.84375 67.402344 67.492188 67.753906 67.234375 C 74.160156 62.464844 82.496094 61.101562 90.054688 63.585938 C 102.886719 67.804688 109.894531 81.679688 105.675781 94.511719 C 103.632812 100.722656 99.289062 105.765625 93.441406 108.71875 C 92.433594 109.226562 91.207031 108.824219 90.699219 107.816406 L 80.578125 87.78125 C 80.070312 86.777344 80.472656 85.546875 81.480469 85.039062 C 82.488281 84.53125 83.714844 84.933594 84.222656 85.941406 L 93.378906 104.066406 C 97.355469 101.539062 100.308594 97.757812 101.796875 93.238281 C 105.3125 82.542969 99.472656 70.980469 88.777344 67.464844 C 82.480469 65.394531 75.53125 66.53125 70.1875 70.507812 C 69.285156 71.179688 68.007812 70.992188 67.332031 70.085938 C 66.917969 69.535156 66.832031 68.839844 67.03125 68.230469 Z M 67.03125 68.230469 " fill-opacity="1" fill-rule="nonzero"/></g></g></g><g clip-path="url(#id13)"><g clip-path="url(#id14)"><g clip-path="url(#id15)"><path fill="rgb(89.408875%, 32.548523%, 32.548523%)" d="M 50.960938 67.929688 C 51.011719 67.777344 51.078125 67.628906 51.164062 67.488281 C 60.140625 53.019531 77.703125 46.628906 93.878906 51.949219 C 97.449219 53.125 100.804688 54.832031 103.851562 57.023438 C 104.765625 57.683594 104.980469 58.960938 104.316406 59.875 C 103.65625 60.789062 102.378906 60.996094 101.464844 60.339844 C 98.757812 58.390625 95.777344 56.871094 92.605469 55.828125 C 78.222656 51.101562 62.609375 56.777344 54.632812 69.640625 C 54.039062 70.601562 52.78125 70.894531 51.824219 70.300781 C 51.003906 69.792969 50.671875 68.804688 50.960938 67.929688 Z M 50.960938 67.929688 " fill-opacity="1" fill-rule="nonzero"/></g></g></g><g clip-path="url(#id16)"><g clip-path="url(#id17)"><g clip-path="url(#id18)"><path fill="rgb(89.408875%, 32.548523%, 32.548523%)" d="M 107.933594 65.03125 C 108.054688 64.65625 108.289062 64.3125 108.625 64.050781 C 109.523438 63.363281 110.804688 63.53125 111.492188 64.425781 C 118.933594 74.109375 121.109375 86.785156 117.3125 98.339844 C 114.25 107.652344 107.734375 115.21875 98.964844 119.648438 C 97.957031 120.15625 96.730469 119.753906 96.222656 118.746094 C 95.710938 117.742188 96.117188 116.511719 97.125 116.003906 C 104.917969 112.066406 110.710938 105.339844 113.433594 97.0625 C 116.808594 86.792969 114.875 75.523438 108.253906 66.917969 C 107.824219 66.359375 107.726562 65.652344 107.933594 65.03125 Z M 107.933594 65.03125 " fill-opacity="1" fill-rule="nonzero"/></g></g></g><g clip-path="url(#id19)"><g clip-path="url(#id20)"><g clip-path="url(#id21)"><path fill="rgb(89.408875%, 32.548523%, 32.548523%)" d="M 51.5 108.9375 C 52.90625 104.660156 57.53125 102.324219 61.808594 103.730469 C 66.089844 105.136719 68.421875 109.761719 67.015625 114.039062 C 65.609375 118.320312 60.988281 120.652344 56.707031 119.246094 C 52.429688 117.839844 50.09375 113.21875 51.5 108.9375 Z M 63.136719 112.765625 C 63.839844 110.625 62.671875 108.3125 60.535156 107.609375 C 58.394531 106.90625 56.082031 108.074219 55.378906 110.214844 C 54.675781 112.351562 55.84375 114.664062 57.984375 115.367188 C 60.121094 116.070312 62.433594 114.902344 63.136719 112.765625 Z M 63.136719 112.765625 " fill-opacity="1" fill-rule="nonzero"/></g></g></g><g clip-path="url(#id22)"><g clip-path="url(#id23)"><g clip-path="url(#id24)"><path fill="rgb(89.408875%, 32.548523%, 32.548523%)" d="M 71.640625 139.199219 C 73.046875 134.921875 77.667969 132.585938 81.949219 133.992188 C 86.226562 135.398438 88.5625 140.023438 87.15625 144.300781 C 85.75 148.582031 81.125 150.917969 76.847656 149.507812 C 72.566406 148.101562 70.230469 143.480469 71.640625 139.199219 Z M 83.277344 143.027344 C 83.980469 140.886719 82.8125 138.574219 80.671875 137.871094 C 78.53125 137.167969 76.222656 138.335938 75.519531 140.476562 C 74.816406 142.617188 75.980469 144.925781 78.121094 145.628906 C 80.261719 146.332031 82.574219 145.167969 83.277344 143.027344 Z M 83.277344 143.027344 " fill-opacity="1" fill-rule="nonzero"/></g></g></g><g clip-path="url(#id25)"><g clip-path="url(#id26)"><g clip-path="url(#id27)"><path fill="rgb(89.408875%, 32.548523%, 32.548523%)" d="M 10.824219 108.457031 C 12.230469 104.179688 16.855469 101.84375 21.132812 103.25 C 25.410156 104.660156 27.746094 109.28125 26.339844 113.558594 C 24.933594 117.839844 20.308594 120.175781 16.03125 118.769531 C 11.753906 117.359375 9.417969 112.738281 10.824219 108.457031 Z M 22.460938 112.285156 C 23.164062 110.144531 21.996094 107.835938 19.855469 107.128906 C 17.71875 106.425781 15.40625 107.59375 14.703125 109.734375 C 14 111.875 15.167969 114.183594 17.304688 114.890625 C 19.445312 115.59375 21.757812 114.425781 22.460938 112.285156 Z M 22.460938 112.285156 " fill-opacity="1" fill-rule="nonzero"/></g></g></g><g clip-path="url(#id28)"><g clip-path="url(#id29)"><g clip-path="url(#id30)"><path fill="rgb(89.408875%, 32.548523%, 32.548523%)" d="M 70.765625 83.035156 C 72.875 76.617188 79.808594 73.113281 86.226562 75.222656 C 92.644531 77.332031 96.148438 84.269531 94.039062 90.6875 C 91.929688 97.101562 84.992188 100.609375 78.574219 98.496094 C 77.503906 98.144531 76.921875 96.992188 77.273438 95.921875 C 77.625 94.851562 78.777344 94.265625 79.851562 94.617188 C 84.128906 96.023438 88.753906 93.691406 90.160156 89.410156 C 91.566406 85.132812 89.230469 80.507812 84.953125 79.101562 C 80.671875 77.695312 76.050781 80.03125 74.644531 84.308594 C 74.289062 85.378906 73.136719 85.964844 72.066406 85.613281 C 70.992188 85.257812 70.410156 84.105469 70.765625 83.035156 Z M 70.765625 83.035156 " fill-opacity="1" fill-rule="nonzero"/></g></g></g><g clip-path="url(#id31)"><g clip-path="url(#id32)"><g clip-path="url(#id33)"><path fill="rgb(89.408875%, 32.548523%, 32.548523%)" d="M 100.042969 59.347656 C 101.273438 55.605469 105.320312 53.5625 109.0625 54.792969 C 112.808594 56.023438 114.851562 60.070312 113.621094 63.8125 C 112.390625 67.554688 108.34375 69.601562 104.597656 68.367188 C 100.855469 67.136719 98.8125 63.09375 100.042969 59.347656 Z M 109.742188 62.539062 C 110.269531 60.933594 109.390625 59.199219 107.789062 58.671875 C 106.183594 58.144531 104.449219 59.019531 103.921875 60.625 C 103.394531 62.226562 104.269531 63.960938 105.875 64.488281 C 107.480469 65.015625 109.214844 64.140625 109.742188 62.539062 Z M 109.742188 62.539062 " fill-opacity="1" fill-rule="nonzero"/></g></g></g><g fill="rgb(0%, 0%, 0%)" fill-opacity="1"><g transform="translate(149.203149, 128.769635)"><g><path d="M 28.757812 -45.242188 C 36.683594 -45.242188 42.160156 -51.222656 42.160156 -58.960938 L 15.855469 -58.960938 C 8.808594 -58.773438 3.144531 -53.046875 3.144531 -46 L 3.144531 0.691406 L 3.273438 0.691406 C 10.445312 0.691406 16.988281 -5.160156 16.988281 -12.332031 L 16.988281 -21.207031 L 22.777344 -21.207031 C 31.210938 -21.207031 36.371094 -26.554688 36.371094 -33.980469 L 16.988281 -33.980469 L 16.988281 -45.242188 Z M 28.757812 -45.242188 "/></g></g></g><g fill="rgb(0%, 0%, 0%)" fill-opacity="1"><g transform="translate(185.053497, 130.171251)"><g><path d="M 38.683594 -31.9375 L 33.128906 -12.578125 L 29.597656 -24.914062 L 33.285156 -36.816406 C 28.804688 -38.207031 24.160156 -36.023438 22.890625 -31.9375 L 17.378906 -12.339844 L 11.824219 -31.9375 C 10.554688 -36.023438 5.910156 -38.207031 1.46875 -36.816406 L 11.347656 -4.917969 C 11.742188 -3.609375 12.535156 -2.460938 13.527344 -1.585938 C 14.601562 -0.675781 15.910156 0 17.378906 0 C 18.84375 0 20.15625 -0.675781 21.226562 -1.585938 C 22.21875 -2.460938 23.011719 -3.609375 23.40625 -4.917969 L 25.234375 -10.871094 L 27.097656 -4.917969 C 27.496094 -3.609375 28.289062 -2.460938 29.28125 -1.585938 C 30.351562 -0.675781 31.660156 0 33.128906 0 C 34.597656 0 35.90625 -0.675781 36.976562 -1.585938 C 37.96875 -2.460938 38.761719 -3.609375 39.160156 -4.917969 L 49.039062 -36.816406 C 44.59375 -38.207031 39.953125 -36.023438 38.683594 -31.9375 Z M 38.683594 -31.9375 "/></g></g></g><g fill="rgb(89.408875%, 32.548523%, 32.548523%)" fill-opacity="1"><g transform="translate(234.901777, 130.171251)"><g><path d="M 21.742188 -32.414062 C 21.226562 -34.4375 20.15625 -35.824219 18.410156 -36.816406 C 17.457031 -37.371094 16.425781 -37.652344 15.3125 -37.652344 C 14.203125 -37.652344 13.171875 -37.371094 12.257812 -36.816406 C 10.511719 -35.824219 9.402344 -34.4375 8.925781 -32.414062 L 0.277344 -0.238281 C 4.761719 0.832031 9.164062 -1.585938 10.195312 -5.671875 L 10.632812 -7.457031 L 10.792969 -8.371094 L 19.835938 -8.371094 L 20.035156 -7.457031 L 20.472656 -5.671875 C 21.464844 -1.585938 25.90625 0.832031 30.351562 -0.238281 Z M 18.449219 -15.035156 L 12.179688 -15.035156 L 15.3125 -27.097656 Z M 18.449219 -15.035156 "/></g></g></g><g fill="rgb(0%, 0%, 0%)" fill-opacity="1"><g transform="translate(265.725121, 130.171251)"><g><path d="M 10.710938 -37.253906 C 5.910156 -37.253906 1.984375 -33.683594 1.984375 -29.238281 L 1.984375 -0.078125 C 1.984375 -0.0390625 1.984375 0 1.984375 0 L 17.8125 0 C 22.257812 0 25.828125 -3.886719 25.828125 -8.726562 L 10.710938 -8.726562 Z M 10.710938 -37.253906 "/></g></g></g><g fill="rgb(0%, 0%, 0%)" fill-opacity="1"><g transform="translate(293.654552, 130.171251)"><g><path d="M 10.710938 -37.253906 C 5.910156 -37.253906 1.984375 -33.683594 1.984375 -29.238281 L 1.984375 -0.078125 C 1.984375 -0.0390625 1.984375 0 1.984375 0 L 17.8125 0 C 22.257812 0 25.828125 -3.886719 25.828125 -8.726562 L 10.710938 -8.726562 Z M 10.710938 -37.253906 "/></g></g></g><g fill="rgb(22.349548%, 92.939758%, 78.039551%)" fill-opacity="1"><g transform="translate(321.570925, 130.171251)"><g><path d="M 10.195312 -14.71875 L 18.765625 -14.71875 L 20.710938 -22.890625 L 10.195312 -22.890625 L 10.195312 -28.566406 L 18.171875 -28.566406 C 23.011719 -28.566406 26.222656 -32.492188 26.222656 -37.371094 L 10.117188 -37.371094 C 5.394531 -37.371094 1.546875 -33.523438 1.546875 -28.765625 L 1.546875 -8.410156 C 1.546875 -3.730469 5.277344 0 9.957031 0 L 15.710938 0 C 20.550781 0 24.320312 -3.929688 24.320312 -8.808594 L 10.195312 -8.808594 Z M 10.195312 -14.71875 "/></g></g></g><g fill="rgb(0%, 0%, 0%)" fill-opacity="1"><g transform="translate(349.346347, 130.171251)"><g><path d="M 7.816406 -37.09375 C 3.371094 -37.09375 -0.199219 -33.800781 -0.199219 -29 L 10.15625 -29 L 10.15625 0 C 14.957031 0 18.84375 -3.570312 18.84375 -7.972656 L 18.84375 -29 L 21.1875 -29 C 25.628906 -29 29.199219 -32.292969 29.199219 -37.09375 Z M 7.816406 -37.09375 "/></g></g></g><g fill="rgb(0%, 0%, 0%)" fill-opacity="1"><g transform="translate(197.207629, 85.978857)"><g><path d="M 3.734375 -5.390625 L 6.871094 -5.390625 L 7.582031 -8.382812 L 3.734375 -8.382812 L 3.734375 -10.460938 L 6.652344 -10.460938 C 8.425781 -10.460938 9.601562 -11.898438 9.601562 -13.683594 L 3.703125 -13.683594 C 1.976562 -13.683594 0.566406 -12.277344 0.566406 -10.53125 L 0.566406 -3.078125 C 0.566406 -1.367188 1.933594 0 3.648438 0 L 5.753906 0 C 7.527344 0 8.90625 -1.4375 8.90625 -3.226562 L 3.734375 -3.226562 Z M 3.734375 -5.390625 "/></g></g></g><g fill="rgb(0%, 0%, 0%)" fill-opacity="1"><g transform="translate(207.391739, 85.978857)"><g><path d="M 8.820312 -6.710938 C 8.0625 -7.714844 6.855469 -8.367188 5.507812 -8.367188 L 4.53125 -8.367188 C 3.964844 -8.367188 3.5 -8.832031 3.5 -9.398438 L 3.5 -9.5 C 3.5 -10.066406 3.964844 -10.53125 4.53125 -10.53125 L 5.925781 -10.53125 C 7.539062 -10.53125 8.847656 -11.882812 8.847656 -13.640625 L 4.53125 -13.640625 C 2.25 -13.640625 0.390625 -11.78125 0.390625 -9.5 L 0.390625 -9.398438 C 0.390625 -8.46875 0.699219 -7.613281 1.21875 -6.914062 C 1.976562 -5.914062 3.167969 -5.257812 4.53125 -5.257812 L 5.507812 -5.257812 C 6.058594 -5.257812 6.539062 -4.792969 6.539062 -4.242188 L 6.539062 -4.125 C 6.539062 -3.574219 6.058594 -3.09375 5.507812 -3.09375 L 3.761719 -3.09375 C 2.148438 -3.09375 0.84375 -1.757812 0.84375 0 L 5.507812 0 C 7.785156 0 9.648438 -1.84375 9.648438 -4.125 L 9.648438 -4.242188 C 9.648438 -5.15625 9.339844 -6.015625 8.820312 -6.710938 Z M 8.820312 -6.710938 "/></g></g></g><g fill="rgb(0%, 0%, 0%)" fill-opacity="1"><g transform="translate(217.285286, 85.978857)"><g><path d="M 2.863281 -13.582031 C 1.234375 -13.582031 -0.0742188 -12.378906 -0.0742188 -10.621094 L 3.71875 -10.621094 L 3.71875 0 C 5.476562 0 6.902344 -1.308594 6.902344 -2.921875 L 6.902344 -10.621094 L 7.757812 -10.621094 C 9.386719 -10.621094 10.691406 -11.824219 10.691406 -13.582031 Z M 2.863281 -13.582031 "/></g></g></g></svg>