<svg xmlns="http://www.w3.org/2000/svg" xmlns:xlink="http://www.w3.org/1999/xlink" width="128" zoomAndPan="magnify" viewBox="0 0 96 95.999999" height="128" preserveAspectRatio="xMidYMid meet" version="1.0"><defs><clipPath id="id1"><path d="M 4 38.15625 L 71 38.15625 L 71 95.960938 L 4 95.960938 Z M 4 38.15625 " clip-rule="nonzero"/></clipPath><clipPath id="id2"><path d="M 52 36 L 78 36 L 78 85 L 52 85 Z M 52 36 " clip-rule="nonzero"/></clipPath><clipPath id="id3"><path d="M 100.90625 14.480469 L 77.609375 85.332031 L 6.757812 62.035156 L 30.054688 -8.816406 Z M 100.90625 14.480469 " clip-rule="nonzero"/></clipPath><clipPath id="id4"><path d="M 100.90625 14.480469 L 77.609375 85.332031 L 6.757812 62.035156 L 30.054688 -8.816406 Z M 100.90625 14.480469 " clip-rule="nonzero"/></clipPath><clipPath id="id5"><path d="M 16 0 L 92 0 L 92 72 L 16 72 Z M 16 0 " clip-rule="nonzero"/></clipPath><clipPath id="id6"><path d="M 100.90625 14.480469 L 77.609375 85.332031 L 6.757812 62.035156 L 30.054688 -8.816406 Z M 100.90625 14.480469 " clip-rule="nonzero"/></clipPath><clipPath id="id7"><path d="M 100.90625 14.480469 L 77.609375 85.332031 L 6.757812 62.035156 L 30.054688 -8.816406 Z M 100.90625 14.480469 " clip-rule="nonzero"/></clipPath><clipPath id="id8"><path d="M 24 8 L 84 8 L 84 65 L 24 65 Z M 24 8 " clip-rule="nonzero"/></clipPath><clipPath id="id9"><path d="M 100.90625 14.480469 L 77.609375 85.332031 L 6.757812 62.035156 L 30.054688 -8.816406 Z M 100.90625 14.480469 " clip-rule="nonzero"/></clipPath><clipPath id="id10"><path d="M 100.90625 14.480469 L 77.609375 85.332031 L 6.757812 62.035156 L 30.054688 -8.816406 Z M 100.90625 14.480469 " clip-rule="nonzero"/></clipPath><clipPath id="id11"><path d="M 44 23 L 69 23 L 69 52 L 44 52 Z M 44 23 " clip-rule="nonzero"/></clipPath><clipPath id="id12"><path d="M 100.90625 14.480469 L 77.609375 85.332031 L 6.757812 62.035156 L 30.054688 -8.816406 Z M 100.90625 14.480469 " clip-rule="nonzero"/></clipPath><clipPath id="id13"><path d="M 100.90625 14.480469 L 77.609375 85.332031 L 6.757812 62.035156 L 30.054688 -8.816406 Z M 100.90625 14.480469 " clip-rule="nonzero"/></clipPath><clipPath id="id14"><path d="M 34 15 L 68 15 L 68 29 L 34 29 Z M 34 15 " clip-rule="nonzero"/></clipPath><clipPath id="id15"><path d="M 100.90625 14.480469 L 77.609375 85.332031 L 6.757812 62.035156 L 30.054688 -8.816406 Z M 100.90625 14.480469 " clip-rule="nonzero"/></clipPath><clipPath id="id16"><path d="M 100.90625 14.480469 L 77.609375 85.332031 L 6.757812 62.035156 L 30.054688 -8.816406 Z M 100.90625 14.480469 " clip-rule="nonzero"/></clipPath><clipPath id="id17"><path d="M 62 24 L 77 24 L 77 59 L 62 59 Z M 62 24 " clip-rule="nonzero"/></clipPath><clipPath id="id18"><path d="M 100.90625 14.480469 L 77.609375 85.332031 L 6.757812 62.035156 L 30.054688 -8.816406 Z M 100.90625 14.480469 " clip-rule="nonzero"/></clipPath><clipPath id="id19"><path d="M 100.90625 14.480469 L 77.609375 85.332031 L 6.757812 62.035156 L 30.054688 -8.816406 Z M 100.90625 14.480469 " clip-rule="nonzero"/></clipPath><clipPath id="id20"><path d="M 34 48 L 45 48 L 45 59 L 34 59 Z M 34 48 " clip-rule="nonzero"/></clipPath><clipPath id="id21"><path d="M 100.90625 14.480469 L 77.609375 85.332031 L 6.757812 62.035156 L 30.054688 -8.816406 Z M 100.90625 14.480469 " clip-rule="nonzero"/></clipPath><clipPath id="id22"><path d="M 100.90625 14.480469 L 77.609375 85.332031 L 6.757812 62.035156 L 30.054688 -8.816406 Z M 100.90625 14.480469 " clip-rule="nonzero"/></clipPath><clipPath id="id23"><path d="M 47 66 L 57 66 L 57 77 L 47 77 Z M 47 66 " clip-rule="nonzero"/></clipPath><clipPath id="id24"><path d="M 100.90625 14.480469 L 77.609375 85.332031 L 6.757812 62.035156 L 30.054688 -8.816406 Z M 100.90625 14.480469 " clip-rule="nonzero"/></clipPath><clipPath id="id25"><path d="M 100.90625 14.480469 L 77.609375 85.332031 L 6.757812 62.035156 L 30.054688 -8.816406 Z M 100.90625 14.480469 " clip-rule="nonzero"/></clipPath><clipPath id="id26"><path d="M 10 47 L 20 47 L 20 58 L 10 58 Z M 10 47 " clip-rule="nonzero"/></clipPath><clipPath id="id27"><path d="M 100.90625 14.480469 L 77.609375 85.332031 L 6.757812 62.035156 L 30.054688 -8.816406 Z M 100.90625 14.480469 " clip-rule="nonzero"/></clipPath><clipPath id="id28"><path d="M 100.90625 14.480469 L 77.609375 85.332031 L 6.757812 62.035156 L 30.054688 -8.816406 Z M 100.90625 14.480469 " clip-rule="nonzero"/></clipPath><clipPath id="id29"><path d="M 46 30 L 62 30 L 62 46 L 46 46 Z M 46 30 " clip-rule="nonzero"/></clipPath><clipPath id="id30"><path d="M 100.90625 14.480469 L 77.609375 85.332031 L 6.757812 62.035156 L 30.054688 -8.816406 Z M 100.90625 14.480469 " clip-rule="nonzero"/></clipPath><clipPath id="id31"><path d="M 100.90625 14.480469 L 77.609375 85.332031 L 6.757812 62.035156 L 30.054688 -8.816406 Z M 100.90625 14.480469 " clip-rule="nonzero"/></clipPath><clipPath id="id32"><path d="M 64 18 L 73 18 L 73 28 L 64 28 Z M 64 18 " clip-rule="nonzero"/></clipPath><clipPath id="id33"><path d="M 100.90625 14.480469 L 77.609375 85.332031 L 6.757812 62.035156 L 30.054688 -8.816406 Z M 100.90625 14.480469 " clip-rule="nonzero"/></clipPath><clipPath id="id34"><path d="M 100.90625 14.480469 L 77.609375 85.332031 L 6.757812 62.035156 L 30.054688 -8.816406 Z M 100.90625 14.480469 " clip-rule="nonzero"/></clipPath></defs><g clip-path="url(#id1)"><path fill="rgb(22.349548%, 92.939758%, 78.039551%)" d="M 70.15625 67.925781 C 70.996094 69.601562 70.316406 71.636719 68.636719 72.472656 L 23.269531 95.105469 C 21.589844 95.941406 19.550781 95.265625 18.710938 93.59375 L 4.945312 66.164062 C 4.109375 64.492188 4.789062 62.457031 6.464844 61.621094 L 51.835938 38.984375 C 53.511719 38.148438 55.554688 38.828125 56.394531 40.5 Z M 70.15625 67.925781 " fill-opacity="1" fill-rule="nonzero"/></g><path fill="rgb(14.509583%, 61.569214%, 51.759338%)" d="M 65.582031 58.808594 L 68.265625 64.152344 L 16.816406 89.816406 L 14.136719 84.472656 Z M 65.582031 58.808594 " fill-opacity="1" fill-rule="nonzero"/><path fill="rgb(89.408875%, 32.548523%, 32.548523%)" d="M 11.398438 66.996094 L 23.570312 60.925781 L 27.488281 68.726562 L 15.3125 74.800781 Z M 11.398438 66.996094 " fill-opacity="1" fill-rule="nonzero"/><path fill="rgb(100%, 100%, 100%)" d="M 33.476562 55.988281 L 51.941406 46.777344 L 53.066406 49.019531 L 34.601562 58.234375 Z M 33.476562 55.988281 " fill-opacity="1" fill-rule="nonzero"/><path fill="rgb(100%, 100%, 100%)" d="M 36.261719 61.542969 L 54.730469 52.332031 L 55.855469 54.578125 L 37.390625 63.789062 Z M 36.261719 61.542969 " fill-opacity="1" fill-rule="nonzero"/><g clip-path="url(#id2)"><g clip-path="url(#id3)"><g clip-path="url(#id4)"><path fill="rgb(89.408875%, 32.548523%, 32.548523%)" d="M 52.613281 37.792969 C 52.710938 37.488281 52.925781 37.226562 53.234375 37.070312 C 53.84375 36.761719 54.589844 37.007812 54.898438 37.621094 L 77.847656 83.050781 C 78.15625 83.660156 77.910156 84.410156 77.300781 84.71875 C 76.6875 85.027344 75.941406 84.78125 75.632812 84.167969 L 52.683594 38.738281 C 52.53125 38.433594 52.515625 38.09375 52.613281 37.792969 Z M 52.613281 37.792969 " fill-opacity="1" fill-rule="nonzero"/></g></g></g><g clip-path="url(#id5)"><g clip-path="url(#id6)"><g clip-path="url(#id7)"><path fill="rgb(89.408875%, 32.548523%, 32.548523%)" d="M 18.425781 26.550781 C 24.835938 7.046875 45.917969 -3.601562 65.421875 2.8125 C 84.921875 9.222656 95.570312 30.304688 89.160156 49.808594 C 86.054688 59.253906 79.453125 66.925781 70.578125 71.410156 C 70.285156 71.558594 69.945312 71.585938 69.632812 71.480469 C 69.316406 71.378906 69.058594 71.15625 68.910156 70.863281 L 52.683594 38.738281 C 52.375 38.128906 52.621094 37.382812 53.234375 37.070312 C 53.84375 36.761719 54.589844 37.007812 54.898438 37.621094 L 70.554688 68.617188 C 78.289062 64.367188 84.03125 57.457031 86.800781 49.03125 C 92.785156 30.832031 82.847656 11.152344 64.644531 5.167969 C 46.445312 -0.816406 26.765625 9.125 20.78125 27.324219 C 19.410156 31.492188 18.839844 35.804688 19.089844 40.144531 C 19.128906 40.828125 18.605469 41.414062 17.921875 41.453125 C 17.238281 41.492188 16.652344 40.96875 16.613281 40.285156 C 16.347656 35.632812 16.957031 31.015625 18.425781 26.550781 Z M 18.425781 26.550781 " fill-opacity="1" fill-rule="nonzero"/></g></g></g><g clip-path="url(#id8)"><g clip-path="url(#id9)"><g clip-path="url(#id10)"><path fill="rgb(89.408875%, 32.548523%, 32.548523%)" d="M 25.496094 28.875 C 30.628906 13.273438 47.496094 4.753906 63.09375 9.886719 C 78.695312 15.015625 87.214844 31.878906 82.085938 47.484375 C 79.605469 55.027344 74.324219 61.164062 67.214844 64.753906 C 66.601562 65.0625 65.855469 64.816406 65.546875 64.203125 L 52.683594 38.738281 C 52.375 38.128906 52.621094 37.378906 53.234375 37.070312 C 53.84375 36.761719 54.589844 37.007812 54.898438 37.621094 L 67.191406 61.953125 C 73.15625 58.601562 77.582031 53.230469 79.730469 46.707031 C 84.429688 32.40625 76.621094 16.945312 62.320312 12.242188 C 48.019531 7.539062 32.558594 15.351562 27.855469 29.652344 C 27.355469 31.167969 26.988281 32.730469 26.765625 34.292969 C 26.675781 34.972656 26.039062 35.441406 25.359375 35.34375 C 24.679688 35.246094 24.210938 34.617188 24.308594 33.941406 C 24.554688 32.234375 24.953125 30.53125 25.496094 28.875 Z M 25.496094 28.875 " fill-opacity="1" fill-rule="nonzero"/></g></g></g><g clip-path="url(#id11)"><g clip-path="url(#id12)"><g clip-path="url(#id13)"><path fill="rgb(89.408875%, 32.548523%, 32.548523%)" d="M 44.449219 26.855469 C 44.527344 26.621094 44.675781 26.40625 44.886719 26.25 C 48.78125 23.351562 53.847656 22.523438 58.445312 24.03125 C 66.246094 26.597656 70.503906 35.03125 67.9375 42.832031 C 66.699219 46.605469 64.058594 49.671875 60.503906 51.464844 C 59.890625 51.773438 59.144531 51.53125 58.835938 50.917969 L 52.683594 38.738281 C 52.375 38.128906 52.621094 37.382812 53.230469 37.074219 C 53.84375 36.765625 54.589844 37.007812 54.898438 37.621094 L 60.464844 48.640625 C 62.882812 47.101562 64.679688 44.804688 65.582031 42.054688 C 67.71875 35.554688 64.167969 28.527344 57.667969 26.390625 C 53.839844 25.132812 49.617188 25.820312 46.367188 28.238281 C 45.820312 28.648438 45.042969 28.535156 44.632812 27.984375 C 44.382812 27.648438 44.328125 27.226562 44.449219 26.855469 Z M 44.449219 26.855469 " fill-opacity="1" fill-rule="nonzero"/></g></g></g><g clip-path="url(#id14)"><g clip-path="url(#id15)"><g clip-path="url(#id16)"><path fill="rgb(89.408875%, 32.548523%, 32.548523%)" d="M 34.679688 26.671875 C 34.710938 26.578125 34.753906 26.488281 34.804688 26.40625 C 40.261719 17.609375 50.9375 13.726562 60.769531 16.957031 C 62.941406 17.671875 64.980469 18.710938 66.832031 20.042969 C 67.386719 20.445312 67.515625 21.21875 67.113281 21.777344 C 66.710938 22.332031 65.9375 22.457031 65.378906 22.058594 C 63.734375 20.871094 61.921875 19.949219 59.996094 19.316406 C 51.253906 16.441406 41.761719 19.894531 36.914062 27.710938 C 36.550781 28.296875 35.789062 28.472656 35.207031 28.113281 C 34.707031 27.804688 34.507812 27.203125 34.679688 26.671875 Z M 34.679688 26.671875 " fill-opacity="1" fill-rule="nonzero"/></g></g></g><g clip-path="url(#id17)"><g clip-path="url(#id18)"><g clip-path="url(#id19)"><path fill="rgb(89.408875%, 32.548523%, 32.548523%)" d="M 69.3125 24.910156 C 69.386719 24.683594 69.527344 24.472656 69.734375 24.316406 C 70.277344 23.898438 71.058594 24 71.472656 24.542969 C 76 30.425781 77.320312 38.132812 75.011719 45.15625 C 73.152344 50.816406 69.191406 55.417969 63.859375 58.109375 C 63.246094 58.417969 62.503906 58.175781 62.191406 57.5625 C 61.882812 56.949219 62.128906 56.203125 62.742188 55.894531 C 67.480469 53.5 71 49.410156 72.65625 44.382812 C 74.707031 38.140625 73.53125 31.289062 69.507812 26.054688 C 69.246094 25.71875 69.1875 25.289062 69.3125 24.910156 Z M 69.3125 24.910156 " fill-opacity="1" fill-rule="nonzero"/></g></g></g><g clip-path="url(#id20)"><g clip-path="url(#id21)"><g clip-path="url(#id22)"><path fill="rgb(89.408875%, 32.548523%, 32.548523%)" d="M 35.007812 51.597656 C 35.863281 49 38.675781 47.578125 41.277344 48.433594 C 43.875 49.289062 45.296875 52.101562 44.441406 54.699219 C 43.585938 57.300781 40.773438 58.722656 38.175781 57.867188 C 35.574219 57.011719 34.152344 54.199219 35.007812 51.597656 Z M 42.082031 53.925781 C 42.511719 52.625 41.800781 51.21875 40.5 50.792969 C 39.199219 50.363281 37.792969 51.074219 37.367188 52.375 C 36.941406 53.675781 37.648438 55.082031 38.949219 55.507812 C 40.25 55.933594 41.65625 55.226562 42.082031 53.925781 Z M 42.082031 53.925781 " fill-opacity="1" fill-rule="nonzero"/></g></g></g><g clip-path="url(#id23)"><g clip-path="url(#id24)"><g clip-path="url(#id25)"><path fill="rgb(89.408875%, 32.548523%, 32.548523%)" d="M 47.25 69.996094 C 48.105469 67.394531 50.914062 65.972656 53.515625 66.828125 C 56.117188 67.683594 57.535156 70.496094 56.683594 73.09375 C 55.828125 75.695312 53.015625 77.117188 50.414062 76.261719 C 47.816406 75.40625 46.394531 72.59375 47.25 69.996094 Z M 54.324219 72.320312 C 54.75 71.019531 54.042969 69.613281 52.742188 69.1875 C 51.441406 68.757812 50.035156 69.46875 49.609375 70.769531 C 49.179688 72.070312 49.890625 73.476562 51.191406 73.902344 C 52.492188 74.332031 53.898438 73.621094 54.324219 72.320312 Z M 54.324219 72.320312 " fill-opacity="1" fill-rule="nonzero"/></g></g></g><g clip-path="url(#id26)"><g clip-path="url(#id27)"><g clip-path="url(#id28)"><path fill="rgb(89.408875%, 32.548523%, 32.548523%)" d="M 10.285156 51.308594 C 11.140625 48.707031 13.949219 47.289062 16.550781 48.144531 C 19.152344 49 20.570312 51.808594 19.714844 54.410156 C 18.859375 57.011719 16.050781 58.429688 13.449219 57.574219 C 10.847656 56.71875 9.429688 53.910156 10.285156 51.308594 Z M 17.355469 53.632812 C 17.785156 52.332031 17.074219 50.929688 15.773438 50.5 C 14.472656 50.074219 13.070312 50.78125 12.640625 52.082031 C 12.214844 53.382812 12.925781 54.789062 14.222656 55.214844 C 15.523438 55.644531 16.929688 54.933594 17.355469 53.632812 Z M 17.355469 53.632812 " fill-opacity="1" fill-rule="nonzero"/></g></g></g><g clip-path="url(#id29)"><g clip-path="url(#id30)"><g clip-path="url(#id31)"><path fill="rgb(89.408875%, 32.548523%, 32.548523%)" d="M 46.71875 35.855469 C 48 31.953125 52.214844 29.824219 56.117188 31.105469 C 60.019531 32.386719 62.148438 36.605469 60.867188 40.503906 C 59.582031 44.40625 55.367188 46.535156 51.464844 45.253906 C 50.8125 45.039062 50.460938 44.335938 50.675781 43.6875 C 50.890625 43.035156 51.589844 42.679688 52.242188 42.894531 C 54.84375 43.75 57.652344 42.332031 58.507812 39.730469 C 59.363281 37.128906 57.941406 34.320312 55.34375 33.464844 C 52.742188 32.609375 49.929688 34.027344 49.078125 36.628906 C 48.863281 37.28125 48.160156 37.632812 47.507812 37.421875 C 46.859375 37.207031 46.503906 36.503906 46.71875 35.855469 Z M 46.71875 35.855469 " fill-opacity="1" fill-rule="nonzero"/></g></g></g><g clip-path="url(#id32)"><g clip-path="url(#id33)"><g clip-path="url(#id34)"><path fill="rgb(89.408875%, 32.548523%, 32.548523%)" d="M 64.515625 21.457031 C 65.265625 19.179688 67.722656 17.9375 70 18.6875 C 72.273438 19.433594 73.515625 21.894531 72.769531 24.171875 C 72.019531 26.445312 69.5625 27.6875 67.285156 26.941406 C 65.011719 26.191406 63.769531 23.730469 64.515625 21.457031 Z M 70.410156 23.394531 C 70.730469 22.417969 70.199219 21.367188 69.222656 21.042969 C 68.25 20.722656 67.195312 21.257812 66.875 22.230469 C 66.554688 23.207031 67.085938 24.261719 68.0625 24.582031 C 69.035156 24.902344 70.089844 24.371094 70.410156 23.394531 Z M 70.410156 23.394531 " fill-opacity="1" fill-rule="nonzero"/></g></g></g></svg>